<?xml version="1.0" ?><svg id="Outline" viewBox="0 0 512 512" xmlns="http://www.w3.org/2000/svg"><defs><style>.cls-1{fill:#262626;}</style></defs><path class="cls-1" d="M452.56,255.21c0-108.38-88.18-196.56-196.56-196.56S59.44,146.83,59.44,255.21c0,103.74,80.79,189,182.76,196.07a11.13,11.13,0,0,0,3.25.49,12.19,12.19,0,0,0,2-.19c2.84.12,5.69.19,8.56.19,2.71,0,5.41-.07,8.09-.18a11.11,11.11,0,0,0,1.9.18,11.7,11.7,0,0,0,3.12-.44C371.4,444.56,452.56,359.19,452.56,255.21ZM256,429.1c-1.35,0-2.69,0-4-.06a338.6,338.6,0,0,1-35.59-89.17,201.47,201.47,0,0,1,78.71-.11,339.46,339.46,0,0,1-35.62,89.29C258.31,429.07,257.16,429.1,256,429.1Zm0-115.94h0a222.75,222.75,0,0,0-44.22,4.5,340.22,340.22,0,0,1-4.88-51.11h97.64a340.05,340.05,0,0,1-4.86,51A222.56,222.56,0,0,0,256,313.16ZM116.56,151.44a266.09,266.09,0,0,0,74.82,36.24,362.39,362.39,0,0,0-6.88,56.19H82.5A173,173,0,0,1,116.56,151.44ZM255.72,84c.17.35.35.7.56,1.05a338.67,338.67,0,0,1,36.57,86.05,201.21,201.21,0,0,1-74.24-.1A339.19,339.19,0,0,1,255.16,85C255.37,84.69,255.55,84.34,255.72,84ZM256,197.26a222,222,0,0,0,42-4,339.62,339.62,0,0,1,6.2,50.66h-97a341.11,341.11,0,0,1,6.22-50.77A222.08,222.08,0,0,0,256,197.26Zm173.5,46.61H326.94a362.87,362.87,0,0,0-6.85-56,266,266,0,0,0,75.35-36.39A172.88,172.88,0,0,1,429.5,243.87ZM184.22,266.55a362.56,362.56,0,0,0,5.52,56.69A267.06,267.06,0,0,0,116.56,359,172.93,172.93,0,0,1,82.5,266.55Zm143,0H429.5A172.85,172.85,0,0,1,395.44,359a266.63,266.63,0,0,0-73.71-35.91A362.79,362.79,0,0,0,327.22,266.55ZM380.64,134.1a240.86,240.86,0,0,1-65.74,31.66,361.63,361.63,0,0,0-33.5-82.57A173.6,173.6,0,0,1,380.64,134.1ZM230,83.28a361.94,361.94,0,0,0-33.41,82.32,241.05,241.05,0,0,1-65.22-31.5A173.59,173.59,0,0,1,230,83.28Zm-98.63,293a242.41,242.41,0,0,1,63-30.82,361.62,361.62,0,0,0,30.22,80.75A173.7,173.7,0,0,1,131.36,376.32Zm155.39,50.05a362.15,362.15,0,0,0,30.32-81,241.76,241.76,0,0,1,63.57,31A173.61,173.61,0,0,1,286.75,426.37Z"/></svg>