<svg width="238" height="135" viewBox="0 0 238 135" fill="none" xmlns="http://www.w3.org/2000/svg">
<g filter="url(#filter0_d_918_144)">
<path d="M62.8008 55.8281V56.3281H63.3008L71.1719 56.3282L71.177 56.3281C73.7996 56.3013 76.118 55.7319 78.1166 54.6036C80.1313 53.4735 81.6775 51.8507 82.7496 49.7477C83.8335 47.647 84.3672 45.2159 84.3672 42.4688L84.3672 40.6523L84.3672 40.6499C84.3538 37.9663 83.8127 35.5691 82.73 33.471C81.6589 31.37 80.1275 29.7414 78.14 28.5979C76.1538 27.4551 73.8782 26.8906 71.3281 26.8906H63.3008H62.8008V27.3906V55.8281ZM77.3625 49.7322L77.3611 49.7337C75.8734 51.4029 73.7754 52.2617 70.9961 52.2617H67.5508V30.9766H71.4234C74.0928 31.002 76.0901 31.8692 77.4884 33.5327L77.4883 33.5327L77.4909 33.5356C78.9122 35.1999 79.6562 37.5756 79.6562 40.7305V42.3906C79.6562 45.634 78.8681 48.0566 77.3625 49.7322Z" fill="white" stroke="black"/>
<path d="M129.715 46.8627L129.781 46.3047H129.219H125.449H125.021L124.955 46.7278C124.598 49.0211 123.886 50.5271 122.899 51.3646C121.915 52.1982 120.453 52.6523 118.438 52.6523C116.275 52.6523 114.627 51.8138 113.436 50.1293C112.225 48.4175 111.594 46.0757 111.594 43.0547V40.3008C111.594 37.0937 112.259 34.6981 113.521 33.0468C114.786 31.4089 116.516 30.5859 118.77 30.5859C120.637 30.5859 122.016 31.07 122.978 31.9737L122.98 31.9758C123.956 32.8816 124.637 34.3925 124.954 36.6024L125.016 37.0312H125.449H129.219H129.771L129.716 36.4813C129.407 33.4048 128.305 30.9511 126.375 29.1721C124.44 27.3763 121.888 26.5 118.77 26.5C116.409 26.5 114.31 27.0608 112.49 28.1962C110.669 29.3192 109.266 30.9325 108.279 33.0163L108.279 33.0163L108.278 33.0187C107.304 35.1018 106.824 37.5007 106.824 40.2031V42.9375C106.824 47.0573 107.855 50.4047 109.968 52.9266L109.969 52.9278C112.103 55.4575 114.942 56.7188 118.438 56.7188C121.626 56.7188 124.234 55.8797 126.208 54.1538L126.208 54.1536C128.196 52.4146 129.353 49.9658 129.715 46.8627Z" fill="white" stroke="black"/>
<path d="M169.375 43.1836H169.875V42.6836V39.6172V39.1172H169.375H157.551V30.9766H171.172H171.672V30.4766V27.3906V26.8906H171.172H153.301H152.801V27.3906V55.8281V56.3281H153.301H171.367H171.867V55.8281V52.7617V52.2617H171.367H157.551V43.1836H169.375Z" fill="white" stroke="black"/>
<mask id="path-4-outside-1_918_144" maskUnits="userSpaceOnUse" x="52" y="65.7422" width="134" height="17" fill="black">
<rect fill="white" x="52" y="65.7422" width="134" height="17"/>
<path d="M53 78.4432V67.3516H56.1875C57.1221 67.3516 57.96 67.5598 58.7014 67.9763C59.4428 68.3876 60.0198 68.9793 60.4322 69.7512C60.8499 70.5232 61.0588 71.4018 61.0588 72.387V73.4078C61.0588 74.3982 60.8525 75.2768 60.4401 76.0436C60.0276 76.8105 59.4454 77.4021 58.6936 77.8186C57.947 78.235 57.0881 78.4432 56.117 78.4432H53ZM53.9633 68.1515V77.651H56.1248C57.3257 77.651 58.289 77.265 59.0147 76.4931C59.7404 75.716 60.1033 74.6673 60.1033 73.3469V72.3718C60.1033 71.0971 59.7456 70.0763 59.0304 69.3094C58.3151 68.5425 57.3727 68.1566 56.2031 68.1515H53.9633Z"/>
<path d="M66.5722 78.5956C65.8517 78.5956 65.1991 78.4229 64.6143 78.0776C64.0348 77.7322 63.5831 77.2523 63.2594 76.6378C62.9357 76.0182 62.7739 75.325 62.7739 74.5581V74.2306C62.7739 73.4383 62.9305 72.7248 63.2438 72.0899C63.5623 71.4551 64.0034 70.9574 64.5673 70.5968C65.1312 70.2312 65.7421 70.0483 66.3999 70.0483C67.4285 70.0483 68.243 70.3912 68.8434 71.0768C69.449 71.7573 69.7519 72.6892 69.7519 73.8725V74.3829H63.7058V74.5581C63.7058 75.4926 63.98 76.2722 64.5282 76.8968C65.0816 77.5164 65.776 77.8262 66.6114 77.8262C67.1126 77.8262 67.5538 77.7373 67.9349 77.5596C68.3213 77.3818 68.6711 77.0974 68.9844 76.7064L69.5717 77.1406C68.8826 78.1106 67.8827 78.5956 66.5722 78.5956ZM66.3999 70.8254C65.6951 70.8254 65.0999 71.0768 64.6143 71.5795C64.134 72.0823 63.8416 72.7578 63.7372 73.6059H68.8199V73.5069C68.7938 72.7146 68.5615 72.0696 68.1229 71.5719C67.6843 71.0742 67.11 70.8254 66.3999 70.8254ZM67.4415 66.7422H68.5771L66.768 68.8752H65.9457L67.4415 66.7422Z"/>
<path d="M74.7093 77.8262C75.3619 77.8262 75.9075 77.6485 76.3461 77.293C76.7899 76.9324 77.0301 76.4677 77.0666 75.8989H77.9673C77.9411 76.4017 77.7793 76.8613 77.4817 77.2777C77.1841 77.6891 76.7873 78.0116 76.2913 78.2452C75.8005 78.4788 75.2732 78.5956 74.7093 78.5956C73.5972 78.5956 72.7148 78.2198 72.0622 77.4682C71.4148 76.7165 71.0911 75.7059 71.0911 74.4362V74.162C71.0911 73.3494 71.2373 72.6308 71.5296 72.0061C71.822 71.3815 72.2397 70.899 72.7827 70.5587C73.3309 70.2185 73.9705 70.0483 74.7015 70.0483C75.6308 70.0483 76.3957 70.3175 76.9961 70.8558C77.6018 71.3942 77.9255 72.1026 77.9673 72.9812H77.0666C77.0248 72.3363 76.7847 71.8157 76.3461 71.4196C75.9128 71.0234 75.3645 70.8254 74.7015 70.8254C73.8556 70.8254 73.1978 71.1225 72.7279 71.7167C72.2632 72.3109 72.0309 73.1437 72.0309 74.2153V74.482C72.0309 75.5332 72.2632 76.3534 72.7279 76.9425C73.1978 77.5316 73.8583 77.8262 74.7093 77.8262Z"/>
<path d="M79.33 74.2001C79.33 73.4078 79.4866 72.6943 79.7999 72.0595C80.1183 71.4246 80.5647 70.932 81.1391 70.5816C81.7186 70.2261 82.3739 70.0483 83.1048 70.0483C84.2326 70.0483 85.1463 70.4343 85.8459 71.2063C86.5455 71.9731 86.8953 72.9914 86.8953 74.261V74.4515C86.8953 75.2488 86.7361 75.9674 86.4176 76.6073C86.1043 77.2422 85.6605 77.7322 85.0862 78.0776C84.5119 78.4229 83.8566 78.5956 83.1205 78.5956C81.9979 78.5956 81.0842 78.2122 80.3794 77.4453C79.6798 76.6734 79.33 75.6526 79.33 74.3829V74.2001ZM80.2698 74.4515C80.2698 75.4367 80.5308 76.2468 81.0529 76.8816C81.5802 77.5113 82.2694 77.8262 83.1205 77.8262C83.9663 77.8262 84.6503 77.5113 85.1724 76.8816C85.6997 76.2468 85.9634 75.4113 85.9634 74.3753V74.2001C85.9634 73.5703 85.8433 72.9939 85.6031 72.4708C85.3629 71.9477 85.0262 71.544 84.5928 71.2596C84.1595 70.9701 83.6635 70.8254 83.1048 70.8254C82.2694 70.8254 81.5881 71.1453 81.0607 71.7852C80.5334 72.42 80.2698 73.2529 80.2698 74.2839V74.4515Z"/>
<path d="M92.7534 70.9777C92.555 70.9422 92.3435 70.9244 92.119 70.9244C91.5343 70.9244 91.0383 71.0844 90.631 71.4043C90.229 71.7192 89.9418 72.1788 89.7695 72.7832V78.4432H88.8376V70.2007H89.7539L89.7695 71.511C90.2655 70.5359 91.0617 70.0483 92.1582 70.0483C92.4192 70.0483 92.6255 70.0814 92.7769 70.1474L92.7534 70.9777Z"/>
<path d="M108.112 75.3353C107.983 76.5034 107.561 77.3972 106.843 78.0168C106.13 78.6364 105.18 78.9462 103.99 78.9462C103.16 78.9462 102.424 78.7405 101.784 78.3291C101.148 77.9178 100.656 77.3363 100.307 76.5847C99.9588 75.8279 99.782 74.9646 99.7769 73.9946V72.5548C99.7769 71.5695 99.9511 70.696 100.3 69.9342C100.648 69.1725 101.148 68.5859 101.799 68.1745C102.455 67.7581 103.209 67.5498 104.06 67.5498C105.259 67.5498 106.205 67.8723 106.897 68.5173C107.594 69.1572 107.999 70.0434 108.112 71.176H107.158C106.922 69.2918 105.89 68.3497 104.06 68.3497C103.045 68.3497 102.235 68.7255 101.63 69.4772C101.03 70.2288 100.73 71.2674 100.73 72.5929V73.9489C100.73 75.2287 101.022 76.2495 101.607 77.0113C102.196 77.773 102.991 78.1539 103.99 78.1539C104.98 78.1539 105.726 77.9203 106.228 77.4531C106.73 76.9808 107.04 76.2749 107.158 75.3353H108.112Z"/>
<path d="M109.688 74.5507C109.688 73.7584 109.842 73.0449 110.149 72.4101C110.462 71.7752 110.9 71.2826 111.464 70.9322C112.033 70.5767 112.676 70.3989 113.394 70.3989C114.501 70.3989 115.398 70.7849 116.085 71.5569C116.772 72.3237 117.115 73.342 117.115 74.6116V74.8021C117.115 75.5994 116.959 76.318 116.646 76.9579C116.339 77.5928 115.903 78.0828 115.339 78.4282C114.775 78.7735 114.132 78.9462 113.409 78.9462C112.307 78.9462 111.41 78.5628 110.718 77.7959C110.031 77.0239 109.688 76.0032 109.688 74.7335V74.5507ZM110.611 74.8021C110.611 75.7873 110.867 76.5973 111.379 77.2322C111.897 77.8619 112.574 78.1768 113.409 78.1768C114.24 78.1768 114.911 77.8619 115.424 77.2322C115.942 76.5973 116.2 75.7619 116.2 74.7259V74.5507C116.2 73.9209 116.082 73.3445 115.847 72.8214C115.611 72.2983 115.28 71.8946 114.855 71.6102C114.429 71.3207 113.942 71.176 113.394 71.176C112.574 71.176 111.905 71.4959 111.387 72.1358C110.869 72.7706 110.611 73.6035 110.611 74.6345V74.8021Z"/>
<path d="M120.053 78.7938H119.13V67.0928H120.053V78.7938Z"/>
<path d="M122.052 74.5507C122.052 73.7584 122.205 73.0449 122.513 72.4101C122.826 71.7752 123.264 71.2826 123.828 70.9322C124.397 70.5767 125.04 70.3989 125.758 70.3989C126.865 70.3989 127.762 70.7849 128.449 71.5569C129.136 72.3237 129.479 73.342 129.479 74.6116V74.8021C129.479 75.5994 129.323 76.318 129.01 76.9579C128.703 77.5928 128.267 78.0828 127.703 78.4282C127.139 78.7735 126.496 78.9462 125.773 78.9462C124.671 78.9462 123.774 78.5628 123.082 77.7959C122.395 77.0239 122.052 76.0032 122.052 74.7335V74.5507ZM122.974 74.8021C122.974 75.7873 123.231 76.5973 123.743 77.2322C124.261 77.8619 124.938 78.1768 125.773 78.1768C126.603 78.1768 127.275 77.8619 127.788 77.2322C128.305 76.5973 128.564 75.7619 128.564 74.7259V74.5507C128.564 73.9209 128.446 73.3445 128.21 72.8214C127.975 72.2983 127.644 71.8946 127.219 71.6102C126.793 71.3207 126.306 71.176 125.758 71.176C124.938 71.176 124.269 71.4959 123.751 72.1358C123.233 72.7706 122.974 73.6035 122.974 74.6345V74.8021Z"/>
<path d="M135.23 71.3283C135.036 71.2928 134.828 71.275 134.608 71.275C134.034 71.275 133.547 71.435 133.147 71.7549C132.752 72.0698 132.47 72.5294 132.301 73.1338V78.7938H131.386V70.5513H132.286L132.301 71.8616C132.788 70.8865 133.57 70.3989 134.646 70.3989C134.902 70.3989 135.105 70.4319 135.254 70.498L135.23 71.3283Z"/>
<path d="M148.543 73.4916H143.216V77.9366H149.341V78.7149H142.253V67.8193H149.302V68.6051H143.216V72.7134H148.543V73.4916Z"/>
<path d="M153.816 73.9032L156.1 70.6181H157.211L154.34 74.5917L157.336 78.7149H156.233L153.823 75.2876L151.414 78.7149H150.311L153.299 74.5917L150.428 70.6181H151.531L153.816 73.9032Z"/>
<path d="M165.753 74.7488C165.753 76.011 165.461 77.0137 164.877 77.7571C164.293 78.4954 163.511 78.8646 162.53 78.8646C161.372 78.8646 160.486 78.4754 159.87 77.6972V81.8279H158.939V70.6181H159.808L159.855 71.763C160.465 70.8999 161.349 70.4684 162.507 70.4684C163.518 70.4684 164.311 70.8351 164.885 71.5684C165.464 72.3018 165.753 73.3195 165.753 74.6216V74.7488ZM164.814 74.5917C164.814 73.559 164.593 72.7433 164.149 72.1446C163.706 71.546 163.088 71.2467 162.295 71.2467C161.722 71.2467 161.229 71.3789 160.817 71.6433C160.405 71.9077 160.089 72.2918 159.87 72.7957V76.6795C160.095 77.1434 160.415 77.4976 160.833 77.7421C161.25 77.9865 161.743 78.1088 162.311 78.1088C163.099 78.1088 163.711 77.8094 164.149 77.2108C164.593 76.6071 164.814 75.7341 164.814 74.5917Z"/>
<path d="M171.112 78.8646C170.392 78.8646 169.74 78.6949 169.156 78.3557C168.577 78.0165 168.126 77.545 167.803 76.9414C167.479 76.3327 167.318 75.6518 167.318 74.8985V74.5767C167.318 73.7984 167.474 73.0975 167.787 72.4739C168.105 71.8503 168.546 71.3614 169.109 71.0072C169.672 70.648 170.283 70.4684 170.94 70.4684C171.967 70.4684 172.781 70.8051 173.38 71.4786C173.985 72.1471 174.288 73.0626 174.288 74.225V74.7263H168.249V74.8985C168.249 75.8164 168.522 76.5822 169.07 77.1958C169.623 77.8044 170.316 78.1088 171.151 78.1088C171.652 78.1088 172.092 78.0215 172.473 77.8469C172.859 77.6722 173.208 77.3929 173.521 77.0087L174.108 77.4353C173.42 78.3881 172.421 78.8646 171.112 78.8646ZM170.94 71.2317C170.236 71.2317 169.641 71.4786 169.156 71.9725C168.676 72.4664 168.384 73.1299 168.28 73.9631H173.357V73.8658C173.331 73.0875 173.099 72.4539 172.661 71.965C172.223 71.4761 171.649 71.2317 170.94 71.2317Z"/>
<path d="M180.022 71.3813C179.824 71.3464 179.613 71.329 179.388 71.329C178.804 71.329 178.309 71.4861 177.902 71.8004C177.5 72.1097 177.214 72.5612 177.041 73.1549V78.7149H176.111V70.6181H177.026L177.041 71.9052C177.537 70.9473 178.332 70.4684 179.427 70.4684C179.688 70.4684 179.894 70.5008 180.045 70.5657L180.022 71.3813Z"/>
<path d="M183.354 68.5452V70.6181H185.107V71.3514H183.354V76.7468C183.354 77.1958 183.438 77.5301 183.605 77.7496C183.777 77.9691 184.061 78.0788 184.458 78.0788C184.614 78.0788 184.867 78.0539 185.216 78.004L185.255 78.7374C185.01 78.8222 184.677 78.8646 184.254 78.8646C183.613 78.8646 183.146 78.6875 182.854 78.3333C182.562 77.9741 182.416 77.4477 182.416 76.7543V71.3514H180.859V70.6181H182.416V68.5452H183.354Z"/>
</mask>
<path d="M53 78.4432V67.3516H56.1875C57.1221 67.3516 57.96 67.5598 58.7014 67.9763C59.4428 68.3876 60.0198 68.9793 60.4322 69.7512C60.8499 70.5232 61.0588 71.4018 61.0588 72.387V73.4078C61.0588 74.3982 60.8525 75.2768 60.4401 76.0436C60.0276 76.8105 59.4454 77.4021 58.6936 77.8186C57.947 78.235 57.0881 78.4432 56.117 78.4432H53ZM53.9633 68.1515V77.651H56.1248C57.3257 77.651 58.289 77.265 59.0147 76.4931C59.7404 75.716 60.1033 74.6673 60.1033 73.3469V72.3718C60.1033 71.0971 59.7456 70.0763 59.0304 69.3094C58.3151 68.5425 57.3727 68.1566 56.2031 68.1515H53.9633Z" fill="white"/>
<path d="M66.5722 78.5956C65.8517 78.5956 65.1991 78.4229 64.6143 78.0776C64.0348 77.7322 63.5831 77.2523 63.2594 76.6378C62.9357 76.0182 62.7739 75.325 62.7739 74.5581V74.2306C62.7739 73.4383 62.9305 72.7248 63.2438 72.0899C63.5623 71.4551 64.0034 70.9574 64.5673 70.5968C65.1312 70.2312 65.7421 70.0483 66.3999 70.0483C67.4285 70.0483 68.243 70.3912 68.8434 71.0768C69.449 71.7573 69.7519 72.6892 69.7519 73.8725V74.3829H63.7058V74.5581C63.7058 75.4926 63.98 76.2722 64.5282 76.8968C65.0816 77.5164 65.776 77.8262 66.6114 77.8262C67.1126 77.8262 67.5538 77.7373 67.9349 77.5596C68.3213 77.3818 68.6711 77.0974 68.9844 76.7064L69.5717 77.1406C68.8826 78.1106 67.8827 78.5956 66.5722 78.5956ZM66.3999 70.8254C65.6951 70.8254 65.0999 71.0768 64.6143 71.5795C64.134 72.0823 63.8416 72.7578 63.7372 73.6059H68.8199V73.5069C68.7938 72.7146 68.5615 72.0696 68.1229 71.5719C67.6843 71.0742 67.11 70.8254 66.3999 70.8254ZM67.4415 66.7422H68.5771L66.768 68.8752H65.9457L67.4415 66.7422Z" fill="white"/>
<path d="M74.7093 77.8262C75.3619 77.8262 75.9075 77.6485 76.3461 77.293C76.7899 76.9324 77.0301 76.4677 77.0666 75.8989H77.9673C77.9411 76.4017 77.7793 76.8613 77.4817 77.2777C77.1841 77.6891 76.7873 78.0116 76.2913 78.2452C75.8005 78.4788 75.2732 78.5956 74.7093 78.5956C73.5972 78.5956 72.7148 78.2198 72.0622 77.4682C71.4148 76.7165 71.0911 75.7059 71.0911 74.4362V74.162C71.0911 73.3494 71.2373 72.6308 71.5296 72.0061C71.822 71.3815 72.2397 70.899 72.7827 70.5587C73.3309 70.2185 73.9705 70.0483 74.7015 70.0483C75.6308 70.0483 76.3957 70.3175 76.9961 70.8558C77.6018 71.3942 77.9255 72.1026 77.9673 72.9812H77.0666C77.0248 72.3363 76.7847 71.8157 76.3461 71.4196C75.9128 71.0234 75.3645 70.8254 74.7015 70.8254C73.8556 70.8254 73.1978 71.1225 72.7279 71.7167C72.2632 72.3109 72.0309 73.1437 72.0309 74.2153V74.482C72.0309 75.5332 72.2632 76.3534 72.7279 76.9425C73.1978 77.5316 73.8583 77.8262 74.7093 77.8262Z" fill="white"/>
<path d="M79.33 74.2001C79.33 73.4078 79.4866 72.6943 79.7999 72.0595C80.1183 71.4246 80.5647 70.932 81.1391 70.5816C81.7186 70.2261 82.3739 70.0483 83.1048 70.0483C84.2326 70.0483 85.1463 70.4343 85.8459 71.2063C86.5455 71.9731 86.8953 72.9914 86.8953 74.261V74.4515C86.8953 75.2488 86.7361 75.9674 86.4176 76.6073C86.1043 77.2422 85.6605 77.7322 85.0862 78.0776C84.5119 78.4229 83.8566 78.5956 83.1205 78.5956C81.9979 78.5956 81.0842 78.2122 80.3794 77.4453C79.6798 76.6734 79.33 75.6526 79.33 74.3829V74.2001ZM80.2698 74.4515C80.2698 75.4367 80.5308 76.2468 81.0529 76.8816C81.5802 77.5113 82.2694 77.8262 83.1205 77.8262C83.9663 77.8262 84.6503 77.5113 85.1724 76.8816C85.6997 76.2468 85.9634 75.4113 85.9634 74.3753V74.2001C85.9634 73.5703 85.8433 72.9939 85.6031 72.4708C85.3629 71.9477 85.0262 71.544 84.5928 71.2596C84.1595 70.9701 83.6635 70.8254 83.1048 70.8254C82.2694 70.8254 81.5881 71.1453 81.0607 71.7852C80.5334 72.42 80.2698 73.2529 80.2698 74.2839V74.4515Z" fill="white"/>
<path d="M92.7534 70.9777C92.555 70.9422 92.3435 70.9244 92.119 70.9244C91.5343 70.9244 91.0383 71.0844 90.631 71.4043C90.229 71.7192 89.9418 72.1788 89.7695 72.7832V78.4432H88.8376V70.2007H89.7539L89.7695 71.511C90.2655 70.5359 91.0617 70.0483 92.1582 70.0483C92.4192 70.0483 92.6255 70.0814 92.7769 70.1474L92.7534 70.9777Z" fill="white"/>
<path d="M108.112 75.3353C107.983 76.5034 107.561 77.3972 106.843 78.0168C106.13 78.6364 105.18 78.9462 103.99 78.9462C103.16 78.9462 102.424 78.7405 101.784 78.3291C101.148 77.9178 100.656 77.3363 100.307 76.5847C99.9588 75.8279 99.782 74.9646 99.7769 73.9946V72.5548C99.7769 71.5695 99.9511 70.696 100.3 69.9342C100.648 69.1725 101.148 68.5859 101.799 68.1745C102.455 67.7581 103.209 67.5498 104.06 67.5498C105.259 67.5498 106.205 67.8723 106.897 68.5173C107.594 69.1572 107.999 70.0434 108.112 71.176H107.158C106.922 69.2918 105.89 68.3497 104.06 68.3497C103.045 68.3497 102.235 68.7255 101.63 69.4772C101.03 70.2288 100.73 71.2674 100.73 72.5929V73.9489C100.73 75.2287 101.022 76.2495 101.607 77.0113C102.196 77.773 102.991 78.1539 103.99 78.1539C104.98 78.1539 105.726 77.9203 106.228 77.4531C106.73 76.9808 107.04 76.2749 107.158 75.3353H108.112Z" fill="white"/>
<path d="M109.688 74.5507C109.688 73.7584 109.842 73.0449 110.149 72.4101C110.462 71.7752 110.9 71.2826 111.464 70.9322C112.033 70.5767 112.676 70.3989 113.394 70.3989C114.501 70.3989 115.398 70.7849 116.085 71.5569C116.772 72.3237 117.115 73.342 117.115 74.6116V74.8021C117.115 75.5994 116.959 76.318 116.646 76.9579C116.339 77.5928 115.903 78.0828 115.339 78.4282C114.775 78.7735 114.132 78.9462 113.409 78.9462C112.307 78.9462 111.41 78.5628 110.718 77.7959C110.031 77.0239 109.688 76.0032 109.688 74.7335V74.5507ZM110.611 74.8021C110.611 75.7873 110.867 76.5973 111.379 77.2322C111.897 77.8619 112.574 78.1768 113.409 78.1768C114.24 78.1768 114.911 77.8619 115.424 77.2322C115.942 76.5973 116.2 75.7619 116.2 74.7259V74.5507C116.2 73.9209 116.082 73.3445 115.847 72.8214C115.611 72.2983 115.28 71.8946 114.855 71.6102C114.429 71.3207 113.942 71.176 113.394 71.176C112.574 71.176 111.905 71.4959 111.387 72.1358C110.869 72.7706 110.611 73.6035 110.611 74.6345V74.8021Z" fill="white"/>
<path d="M120.053 78.7938H119.13V67.0928H120.053V78.7938Z" fill="white"/>
<path d="M122.052 74.5507C122.052 73.7584 122.205 73.0449 122.513 72.4101C122.826 71.7752 123.264 71.2826 123.828 70.9322C124.397 70.5767 125.04 70.3989 125.758 70.3989C126.865 70.3989 127.762 70.7849 128.449 71.5569C129.136 72.3237 129.479 73.342 129.479 74.6116V74.8021C129.479 75.5994 129.323 76.318 129.01 76.9579C128.703 77.5928 128.267 78.0828 127.703 78.4282C127.139 78.7735 126.496 78.9462 125.773 78.9462C124.671 78.9462 123.774 78.5628 123.082 77.7959C122.395 77.0239 122.052 76.0032 122.052 74.7335V74.5507ZM122.974 74.8021C122.974 75.7873 123.231 76.5973 123.743 77.2322C124.261 77.8619 124.938 78.1768 125.773 78.1768C126.603 78.1768 127.275 77.8619 127.788 77.2322C128.305 76.5973 128.564 75.7619 128.564 74.7259V74.5507C128.564 73.9209 128.446 73.3445 128.21 72.8214C127.975 72.2983 127.644 71.8946 127.219 71.6102C126.793 71.3207 126.306 71.176 125.758 71.176C124.938 71.176 124.269 71.4959 123.751 72.1358C123.233 72.7706 122.974 73.6035 122.974 74.6345V74.8021Z" fill="white"/>
<path d="M135.23 71.3283C135.036 71.2928 134.828 71.275 134.608 71.275C134.034 71.275 133.547 71.435 133.147 71.7549C132.752 72.0698 132.47 72.5294 132.301 73.1338V78.7938H131.386V70.5513H132.286L132.301 71.8616C132.788 70.8865 133.57 70.3989 134.646 70.3989C134.902 70.3989 135.105 70.4319 135.254 70.498L135.23 71.3283Z" fill="white"/>
<path d="M148.543 73.4916H143.216V77.9366H149.341V78.7149H142.253V67.8193H149.302V68.6051H143.216V72.7134H148.543V73.4916Z" fill="white"/>
<path d="M153.816 73.9032L156.1 70.6181H157.211L154.34 74.5917L157.336 78.7149H156.233L153.823 75.2876L151.414 78.7149H150.311L153.299 74.5917L150.428 70.6181H151.531L153.816 73.9032Z" fill="white"/>
<path d="M165.753 74.7488C165.753 76.011 165.461 77.0137 164.877 77.7571C164.293 78.4954 163.511 78.8646 162.53 78.8646C161.372 78.8646 160.486 78.4754 159.87 77.6972V81.8279H158.939V70.6181H159.808L159.855 71.763C160.465 70.8999 161.349 70.4684 162.507 70.4684C163.518 70.4684 164.311 70.8351 164.885 71.5684C165.464 72.3018 165.753 73.3195 165.753 74.6216V74.7488ZM164.814 74.5917C164.814 73.559 164.593 72.7433 164.149 72.1446C163.706 71.546 163.088 71.2467 162.295 71.2467C161.722 71.2467 161.229 71.3789 160.817 71.6433C160.405 71.9077 160.089 72.2918 159.87 72.7957V76.6795C160.095 77.1434 160.415 77.4976 160.833 77.7421C161.25 77.9865 161.743 78.1088 162.311 78.1088C163.099 78.1088 163.711 77.8094 164.149 77.2108C164.593 76.6071 164.814 75.7341 164.814 74.5917Z" fill="white"/>
<path d="M171.112 78.8646C170.392 78.8646 169.74 78.6949 169.156 78.3557C168.577 78.0165 168.126 77.545 167.803 76.9414C167.479 76.3327 167.318 75.6518 167.318 74.8985V74.5767C167.318 73.7984 167.474 73.0975 167.787 72.4739C168.105 71.8503 168.546 71.3614 169.109 71.0072C169.672 70.648 170.283 70.4684 170.94 70.4684C171.967 70.4684 172.781 70.8051 173.38 71.4786C173.985 72.1471 174.288 73.0626 174.288 74.225V74.7263H168.249V74.8985C168.249 75.8164 168.522 76.5822 169.07 77.1958C169.623 77.8044 170.316 78.1088 171.151 78.1088C171.652 78.1088 172.092 78.0215 172.473 77.8469C172.859 77.6722 173.208 77.3929 173.521 77.0087L174.108 77.4353C173.42 78.3881 172.421 78.8646 171.112 78.8646ZM170.94 71.2317C170.236 71.2317 169.641 71.4786 169.156 71.9725C168.676 72.4664 168.384 73.1299 168.28 73.9631H173.357V73.8658C173.331 73.0875 173.099 72.4539 172.661 71.965C172.223 71.4761 171.649 71.2317 170.94 71.2317Z" fill="white"/>
<path d="M180.022 71.3813C179.824 71.3464 179.613 71.329 179.388 71.329C178.804 71.329 178.309 71.4861 177.902 71.8004C177.5 72.1097 177.214 72.5612 177.041 73.1549V78.7149H176.111V70.6181H177.026L177.041 71.9052C177.537 70.9473 178.332 70.4684 179.427 70.4684C179.688 70.4684 179.894 70.5008 180.045 70.5657L180.022 71.3813Z" fill="white"/>
<path d="M183.354 68.5452V70.6181H185.107V71.3514H183.354V76.7468C183.354 77.1958 183.438 77.5301 183.605 77.7496C183.777 77.9691 184.061 78.0788 184.458 78.0788C184.614 78.0788 184.867 78.0539 185.216 78.004L185.255 78.7374C185.01 78.8222 184.677 78.8646 184.254 78.8646C183.613 78.8646 183.146 78.6875 182.854 78.3333C182.562 77.9741 182.416 77.4477 182.416 76.7543V71.3514H180.859V70.6181H182.416V68.5452H183.354Z" fill="white"/>
<path d="M53 78.4432V67.3516H56.1875C57.1221 67.3516 57.96 67.5598 58.7014 67.9763C59.4428 68.3876 60.0198 68.9793 60.4322 69.7512C60.8499 70.5232 61.0588 71.4018 61.0588 72.387V73.4078C61.0588 74.3982 60.8525 75.2768 60.4401 76.0436C60.0276 76.8105 59.4454 77.4021 58.6936 77.8186C57.947 78.235 57.0881 78.4432 56.117 78.4432H53ZM53.9633 68.1515V77.651H56.1248C57.3257 77.651 58.289 77.265 59.0147 76.4931C59.7404 75.716 60.1033 74.6673 60.1033 73.3469V72.3718C60.1033 71.0971 59.7456 70.0763 59.0304 69.3094C58.3151 68.5425 57.3727 68.1566 56.2031 68.1515H53.9633Z" stroke="white" stroke-width="0.6" mask="url(#path-4-outside-1_918_144)"/>
<path d="M66.5722 78.5956C65.8517 78.5956 65.1991 78.4229 64.6143 78.0776C64.0348 77.7322 63.5831 77.2523 63.2594 76.6378C62.9357 76.0182 62.7739 75.325 62.7739 74.5581V74.2306C62.7739 73.4383 62.9305 72.7248 63.2438 72.0899C63.5623 71.4551 64.0034 70.9574 64.5673 70.5968C65.1312 70.2312 65.7421 70.0483 66.3999 70.0483C67.4285 70.0483 68.243 70.3912 68.8434 71.0768C69.449 71.7573 69.7519 72.6892 69.7519 73.8725V74.3829H63.7058V74.5581C63.7058 75.4926 63.98 76.2722 64.5282 76.8968C65.0816 77.5164 65.776 77.8262 66.6114 77.8262C67.1126 77.8262 67.5538 77.7373 67.9349 77.5596C68.3213 77.3818 68.6711 77.0974 68.9844 76.7064L69.5717 77.1406C68.8826 78.1106 67.8827 78.5956 66.5722 78.5956ZM66.3999 70.8254C65.6951 70.8254 65.0999 71.0768 64.6143 71.5795C64.134 72.0823 63.8416 72.7578 63.7372 73.6059H68.8199V73.5069C68.7938 72.7146 68.5615 72.0696 68.1229 71.5719C67.6843 71.0742 67.11 70.8254 66.3999 70.8254ZM67.4415 66.7422H68.5771L66.768 68.8752H65.9457L67.4415 66.7422Z" stroke="white" stroke-width="0.6" mask="url(#path-4-outside-1_918_144)"/>
<path d="M74.7093 77.8262C75.3619 77.8262 75.9075 77.6485 76.3461 77.293C76.7899 76.9324 77.0301 76.4677 77.0666 75.8989H77.9673C77.9411 76.4017 77.7793 76.8613 77.4817 77.2777C77.1841 77.6891 76.7873 78.0116 76.2913 78.2452C75.8005 78.4788 75.2732 78.5956 74.7093 78.5956C73.5972 78.5956 72.7148 78.2198 72.0622 77.4682C71.4148 76.7165 71.0911 75.7059 71.0911 74.4362V74.162C71.0911 73.3494 71.2373 72.6308 71.5296 72.0061C71.822 71.3815 72.2397 70.899 72.7827 70.5587C73.3309 70.2185 73.9705 70.0483 74.7015 70.0483C75.6308 70.0483 76.3957 70.3175 76.9961 70.8558C77.6018 71.3942 77.9255 72.1026 77.9673 72.9812H77.0666C77.0248 72.3363 76.7847 71.8157 76.3461 71.4196C75.9128 71.0234 75.3645 70.8254 74.7015 70.8254C73.8556 70.8254 73.1978 71.1225 72.7279 71.7167C72.2632 72.3109 72.0309 73.1437 72.0309 74.2153V74.482C72.0309 75.5332 72.2632 76.3534 72.7279 76.9425C73.1978 77.5316 73.8583 77.8262 74.7093 77.8262Z" stroke="white" stroke-width="0.6" mask="url(#path-4-outside-1_918_144)"/>
<path d="M79.33 74.2001C79.33 73.4078 79.4866 72.6943 79.7999 72.0595C80.1183 71.4246 80.5647 70.932 81.1391 70.5816C81.7186 70.2261 82.3739 70.0483 83.1048 70.0483C84.2326 70.0483 85.1463 70.4343 85.8459 71.2063C86.5455 71.9731 86.8953 72.9914 86.8953 74.261V74.4515C86.8953 75.2488 86.7361 75.9674 86.4176 76.6073C86.1043 77.2422 85.6605 77.7322 85.0862 78.0776C84.5119 78.4229 83.8566 78.5956 83.1205 78.5956C81.9979 78.5956 81.0842 78.2122 80.3794 77.4453C79.6798 76.6734 79.33 75.6526 79.33 74.3829V74.2001ZM80.2698 74.4515C80.2698 75.4367 80.5308 76.2468 81.0529 76.8816C81.5802 77.5113 82.2694 77.8262 83.1205 77.8262C83.9663 77.8262 84.6503 77.5113 85.1724 76.8816C85.6997 76.2468 85.9634 75.4113 85.9634 74.3753V74.2001C85.9634 73.5703 85.8433 72.9939 85.6031 72.4708C85.3629 71.9477 85.0262 71.544 84.5928 71.2596C84.1595 70.9701 83.6635 70.8254 83.1048 70.8254C82.2694 70.8254 81.5881 71.1453 81.0607 71.7852C80.5334 72.42 80.2698 73.2529 80.2698 74.2839V74.4515Z" stroke="white" stroke-width="0.6" mask="url(#path-4-outside-1_918_144)"/>
<path d="M92.7534 70.9777C92.555 70.9422 92.3435 70.9244 92.119 70.9244C91.5343 70.9244 91.0383 71.0844 90.631 71.4043C90.229 71.7192 89.9418 72.1788 89.7695 72.7832V78.4432H88.8376V70.2007H89.7539L89.7695 71.511C90.2655 70.5359 91.0617 70.0483 92.1582 70.0483C92.4192 70.0483 92.6255 70.0814 92.7769 70.1474L92.7534 70.9777Z" stroke="white" stroke-width="0.6" mask="url(#path-4-outside-1_918_144)"/>
<path d="M108.112 75.3353C107.983 76.5034 107.561 77.3972 106.843 78.0168C106.13 78.6364 105.18 78.9462 103.99 78.9462C103.16 78.9462 102.424 78.7405 101.784 78.3291C101.148 77.9178 100.656 77.3363 100.307 76.5847C99.9588 75.8279 99.782 74.9646 99.7769 73.9946V72.5548C99.7769 71.5695 99.9511 70.696 100.3 69.9342C100.648 69.1725 101.148 68.5859 101.799 68.1745C102.455 67.7581 103.209 67.5498 104.06 67.5498C105.259 67.5498 106.205 67.8723 106.897 68.5173C107.594 69.1572 107.999 70.0434 108.112 71.176H107.158C106.922 69.2918 105.89 68.3497 104.06 68.3497C103.045 68.3497 102.235 68.7255 101.63 69.4772C101.03 70.2288 100.73 71.2674 100.73 72.5929V73.9489C100.73 75.2287 101.022 76.2495 101.607 77.0113C102.196 77.773 102.991 78.1539 103.99 78.1539C104.98 78.1539 105.726 77.9203 106.228 77.4531C106.73 76.9808 107.04 76.2749 107.158 75.3353H108.112Z" stroke="white" stroke-width="0.6" mask="url(#path-4-outside-1_918_144)"/>
<path d="M109.688 74.5507C109.688 73.7584 109.842 73.0449 110.149 72.4101C110.462 71.7752 110.9 71.2826 111.464 70.9322C112.033 70.5767 112.676 70.3989 113.394 70.3989C114.501 70.3989 115.398 70.7849 116.085 71.5569C116.772 72.3237 117.115 73.342 117.115 74.6116V74.8021C117.115 75.5994 116.959 76.318 116.646 76.9579C116.339 77.5928 115.903 78.0828 115.339 78.4282C114.775 78.7735 114.132 78.9462 113.409 78.9462C112.307 78.9462 111.41 78.5628 110.718 77.7959C110.031 77.0239 109.688 76.0032 109.688 74.7335V74.5507ZM110.611 74.8021C110.611 75.7873 110.867 76.5973 111.379 77.2322C111.897 77.8619 112.574 78.1768 113.409 78.1768C114.24 78.1768 114.911 77.8619 115.424 77.2322C115.942 76.5973 116.2 75.7619 116.2 74.7259V74.5507C116.2 73.9209 116.082 73.3445 115.847 72.8214C115.611 72.2983 115.28 71.8946 114.855 71.6102C114.429 71.3207 113.942 71.176 113.394 71.176C112.574 71.176 111.905 71.4959 111.387 72.1358C110.869 72.7706 110.611 73.6035 110.611 74.6345V74.8021Z" stroke="white" stroke-width="0.6" mask="url(#path-4-outside-1_918_144)"/>
<path d="M120.053 78.7938H119.13V67.0928H120.053V78.7938Z" stroke="white" stroke-width="0.6" mask="url(#path-4-outside-1_918_144)"/>
<path d="M122.052 74.5507C122.052 73.7584 122.205 73.0449 122.513 72.4101C122.826 71.7752 123.264 71.2826 123.828 70.9322C124.397 70.5767 125.04 70.3989 125.758 70.3989C126.865 70.3989 127.762 70.7849 128.449 71.5569C129.136 72.3237 129.479 73.342 129.479 74.6116V74.8021C129.479 75.5994 129.323 76.318 129.01 76.9579C128.703 77.5928 128.267 78.0828 127.703 78.4282C127.139 78.7735 126.496 78.9462 125.773 78.9462C124.671 78.9462 123.774 78.5628 123.082 77.7959C122.395 77.0239 122.052 76.0032 122.052 74.7335V74.5507ZM122.974 74.8021C122.974 75.7873 123.231 76.5973 123.743 77.2322C124.261 77.8619 124.938 78.1768 125.773 78.1768C126.603 78.1768 127.275 77.8619 127.788 77.2322C128.305 76.5973 128.564 75.7619 128.564 74.7259V74.5507C128.564 73.9209 128.446 73.3445 128.21 72.8214C127.975 72.2983 127.644 71.8946 127.219 71.6102C126.793 71.3207 126.306 71.176 125.758 71.176C124.938 71.176 124.269 71.4959 123.751 72.1358C123.233 72.7706 122.974 73.6035 122.974 74.6345V74.8021Z" stroke="white" stroke-width="0.6" mask="url(#path-4-outside-1_918_144)"/>
<path d="M135.23 71.3283C135.036 71.2928 134.828 71.275 134.608 71.275C134.034 71.275 133.547 71.435 133.147 71.7549C132.752 72.0698 132.47 72.5294 132.301 73.1338V78.7938H131.386V70.5513H132.286L132.301 71.8616C132.788 70.8865 133.57 70.3989 134.646 70.3989C134.902 70.3989 135.105 70.4319 135.254 70.498L135.23 71.3283Z" stroke="white" stroke-width="0.6" mask="url(#path-4-outside-1_918_144)"/>
<path d="M148.543 73.4916H143.216V77.9366H149.341V78.7149H142.253V67.8193H149.302V68.6051H143.216V72.7134H148.543V73.4916Z" stroke="white" stroke-width="0.6" mask="url(#path-4-outside-1_918_144)"/>
<path d="M153.816 73.9032L156.1 70.6181H157.211L154.34 74.5917L157.336 78.7149H156.233L153.823 75.2876L151.414 78.7149H150.311L153.299 74.5917L150.428 70.6181H151.531L153.816 73.9032Z" stroke="white" stroke-width="0.6" mask="url(#path-4-outside-1_918_144)"/>
<path d="M165.753 74.7488C165.753 76.011 165.461 77.0137 164.877 77.7571C164.293 78.4954 163.511 78.8646 162.53 78.8646C161.372 78.8646 160.486 78.4754 159.87 77.6972V81.8279H158.939V70.6181H159.808L159.855 71.763C160.465 70.8999 161.349 70.4684 162.507 70.4684C163.518 70.4684 164.311 70.8351 164.885 71.5684C165.464 72.3018 165.753 73.3195 165.753 74.6216V74.7488ZM164.814 74.5917C164.814 73.559 164.593 72.7433 164.149 72.1446C163.706 71.546 163.088 71.2467 162.295 71.2467C161.722 71.2467 161.229 71.3789 160.817 71.6433C160.405 71.9077 160.089 72.2918 159.87 72.7957V76.6795C160.095 77.1434 160.415 77.4976 160.833 77.7421C161.25 77.9865 161.743 78.1088 162.311 78.1088C163.099 78.1088 163.711 77.8094 164.149 77.2108C164.593 76.6071 164.814 75.7341 164.814 74.5917Z" stroke="white" stroke-width="0.6" mask="url(#path-4-outside-1_918_144)"/>
<path d="M171.112 78.8646C170.392 78.8646 169.74 78.6949 169.156 78.3557C168.577 78.0165 168.126 77.545 167.803 76.9414C167.479 76.3327 167.318 75.6518 167.318 74.8985V74.5767C167.318 73.7984 167.474 73.0975 167.787 72.4739C168.105 71.8503 168.546 71.3614 169.109 71.0072C169.672 70.648 170.283 70.4684 170.94 70.4684C171.967 70.4684 172.781 70.8051 173.38 71.4786C173.985 72.1471 174.288 73.0626 174.288 74.225V74.7263H168.249V74.8985C168.249 75.8164 168.522 76.5822 169.07 77.1958C169.623 77.8044 170.316 78.1088 171.151 78.1088C171.652 78.1088 172.092 78.0215 172.473 77.8469C172.859 77.6722 173.208 77.3929 173.521 77.0087L174.108 77.4353C173.42 78.3881 172.421 78.8646 171.112 78.8646ZM170.94 71.2317C170.236 71.2317 169.641 71.4786 169.156 71.9725C168.676 72.4664 168.384 73.1299 168.28 73.9631H173.357V73.8658C173.331 73.0875 173.099 72.4539 172.661 71.965C172.223 71.4761 171.649 71.2317 170.94 71.2317Z" stroke="white" stroke-width="0.6" mask="url(#path-4-outside-1_918_144)"/>
<path d="M180.022 71.3813C179.824 71.3464 179.613 71.329 179.388 71.329C178.804 71.329 178.309 71.4861 177.902 71.8004C177.5 72.1097 177.214 72.5612 177.041 73.1549V78.7149H176.111V70.6181H177.026L177.041 71.9052C177.537 70.9473 178.332 70.4684 179.427 70.4684C179.688 70.4684 179.894 70.5008 180.045 70.5657L180.022 71.3813Z" stroke="white" stroke-width="0.6" mask="url(#path-4-outside-1_918_144)"/>
<path d="M183.354 68.5452V70.6181H185.107V71.3514H183.354V76.7468C183.354 77.1958 183.438 77.5301 183.605 77.7496C183.777 77.9691 184.061 78.0788 184.458 78.0788C184.614 78.0788 184.867 78.0539 185.216 78.004L185.255 78.7374C185.01 78.8222 184.677 78.8646 184.254 78.8646C183.613 78.8646 183.146 78.6875 182.854 78.3333C182.562 77.9741 182.416 77.4477 182.416 76.7543V71.3514H180.859V70.6181H182.416V68.5452H183.354Z" stroke="white" stroke-width="0.6" mask="url(#path-4-outside-1_918_144)"/>
</g>
<defs>
<filter id="filter0_d_918_144" x="0.700012" y="-26" width="236.867" height="160.128" filterUnits="userSpaceOnUse" color-interpolation-filters="sRGB">
<feFlood flood-opacity="0" result="BackgroundImageFix"/>
<feColorMatrix in="SourceAlpha" type="matrix" values="0 0 0 0 0 0 0 0 0 0 0 0 0 0 0 0 0 0 127 0" result="hardAlpha"/>
<feOffset/>
<feGaussianBlur stdDeviation="26"/>
<feColorMatrix type="matrix" values="0 0 0 0 0 0 0 0 0 0 0 0 0 0 0 0 0 0 1 0"/>
<feBlend mode="normal" in2="BackgroundImageFix" result="effect1_dropShadow_918_144"/>
<feBlend mode="normal" in="SourceGraphic" in2="effect1_dropShadow_918_144" result="shape"/>
</filter>
</defs>
</svg>
