<svg width="1440" height="733" viewBox="0 0 1440 733" fill="none" xmlns="http://www.w3.org/2000/svg">
<g opacity="0.1">
<mask id="mask0_344_2071" style="mask-type:alpha" maskUnits="userSpaceOnUse" x="0" y="0" width="1440" height="733">
<rect width="1440" height="733" fill="#4C6071"/>
</mask>
<g mask="url(#mask0_344_2071)">
<path d="M1421.5 726.6C1421.5 722.1 1425.2 718.4 1429.7 718.4C1434.2 718.4 1437.9 722.1 1437.9 726.6C1437.9 731.1 1434.2 734.8 1429.7 734.8C1425.1 734.8 1421.5 731.1 1421.5 726.6Z" fill="#231F20"/>
<path d="M1375.6 726.6C1375.6 725.3 1376.7 724.2 1378 724.2C1379.3 724.2 1380.4 725.3 1380.4 726.6C1380.4 727.9 1379.3 729 1378 729C1376.7 729 1375.6 727.9 1375.6 726.6Z" fill="#231F20"/>
<path d="M1316.6 726.6C1316.6 721.2 1321 716.8 1326.4 716.8C1331.8 716.8 1336.2 721.2 1336.2 726.6C1336.2 732 1331.8 736.4 1326.4 736.4C1321 736.3 1316.6 732 1316.6 726.6Z" fill="#231F20"/>
<path d="M1270 726.6C1270 724 1272.1 721.8 1274.8 721.8C1277.4 721.8 1279.6 723.9 1279.6 726.6C1279.6 729.2 1277.5 731.4 1274.8 731.4C1272.1 731.3 1270 729.2 1270 726.6Z" fill="#231F20"/>
<path d="M1220.8 726.6C1220.8 725.3 1221.8 724.3 1223.1 724.3C1224.4 724.3 1225.4 725.3 1225.4 726.6C1225.4 727.9 1224.4 728.9 1223.1 728.9C1221.9 728.9 1220.8 727.8 1220.8 726.6Z" fill="#231F20"/>
<path d="M1162.2 726.6C1162.2 721.5 1166.3 717.4 1171.4 717.4C1176.5 717.4 1180.6 721.5 1180.6 726.6C1180.6 731.7 1176.5 735.8 1171.4 735.8C1166.4 735.8 1162.2 731.7 1162.2 726.6Z" fill="#231F20"/>
<path d="M1115.6 726.6C1115.6 724.2 1117.5 722.3 1119.9 722.3C1122.3 722.3 1124.2 724.2 1124.2 726.6C1124.2 729 1122.3 730.9 1119.9 730.9C1117.5 730.8 1115.6 728.9 1115.6 726.6Z" fill="#231F20"/>
<path d="M1067 726.6C1067 726 1067.5 725.4 1068.2 725.4C1068.8 725.4 1069.4 725.9 1069.4 726.6C1069.4 727.2 1068.9 727.8 1068.2 727.8C1067.6 727.8 1067 727.2 1067 726.6Z" fill="#231F20"/>
<path d="M1012.8 726.6C1012.8 724.5 1014.5 722.8 1016.6 722.8C1018.7 722.8 1020.4 724.5 1020.4 726.6C1020.4 728.7 1018.7 730.4 1016.6 730.4C1014.5 730.4 1012.8 728.7 1012.8 726.6Z" fill="#231F20"/>
<path d="M963.5 726.6C963.5 725.8 964.1 725.2 964.9 725.2C965.7 725.2 966.3 725.8 966.3 726.6C966.3 727.4 965.7 728 964.9 728C964.1 728 963.5 727.4 963.5 726.6Z" fill="#231F20"/>
<path d="M907.1 726.6C907.1 723.2 909.9 720.4 913.3 720.4C916.7 720.4 919.5 723.2 919.5 726.6C919.5 730 916.7 732.8 913.3 732.8C909.9 732.8 907.1 730 907.1 726.6Z" fill="#231F20"/>
<path d="M860 726.6C860 725.7 860.8 724.9 861.7 724.9C862.6 724.9 863.4 725.7 863.4 726.6C863.4 727.5 862.6 728.3 861.7 728.3C860.7 728.3 860 727.5 860 726.6Z" fill="#231F20"/>
<path d="M801 726.6C801 721.6 805 717.6 810 717.6C815 717.6 819 721.6 819 726.6C819 731.6 815 735.6 810 735.6C805 735.6 801 731.6 801 726.6Z" fill="#231F20"/>
<path d="M752.1 726.6C752.1 723.1 754.9 720.3 758.4 720.3C761.9 720.3 764.7 723.1 764.7 726.6C764.7 730.1 761.9 732.9 758.4 732.9C754.9 732.8 752.1 730 752.1 726.6Z" fill="#231F20"/>
<path d="M702.8 726.6C702.8 724.4 704.6 722.6 706.8 722.6C709 722.6 710.8 724.4 710.8 726.6C710.8 728.8 709 730.6 706.8 730.6C704.6 730.6 702.8 728.8 702.8 726.6Z" fill="#231F20"/>
<path d="M647.7 726.6C647.7 722.5 651 719.2 655.1 719.2C659.2 719.2 662.5 722.5 662.5 726.6C662.5 730.7 659.2 734 655.1 734C651.1 734 647.7 730.7 647.7 726.6Z" fill="#231F20"/>
<path d="M600.7 726.6C600.7 725.1 601.9 723.8 603.5 723.8C605 723.8 606.3 725 606.3 726.6C606.3 728.1 605.1 729.4 603.5 729.4C602 729.4 600.7 728.1 600.7 726.6Z" fill="#231F20"/>
<path d="M544.7 726.6C544.7 722.6 547.9 719.4 551.9 719.4C555.9 719.4 559.1 722.6 559.1 726.6C559.1 730.6 555.9 733.8 551.9 733.8C547.9 733.8 544.7 730.6 544.7 726.6Z" fill="#231F20"/>
<path d="M495.1 726.6C495.1 723.8 497.4 721.5 500.2 721.5C503 721.5 505.3 723.8 505.3 726.6C505.3 729.4 503 731.7 500.2 731.7C497.4 731.7 495.1 729.4 495.1 726.6Z" fill="#231F20"/>
<path d="M439.1 726.6C439.1 721.4 443.4 717.1 448.6 717.1C453.9 717.1 458.1 721.4 458.1 726.6C458.1 731.8 453.9 736.1 448.6 736.1C443.3 736.1 439.1 731.8 439.1 726.6Z" fill="#231F20"/>
<path d="M393.5 726.6C393.5 724.7 395.1 723.1 397 723.1C398.9 723.1 400.5 724.7 400.5 726.6C400.5 728.5 398.9 730.1 397 730.1C395 730.1 393.5 728.5 393.5 726.6Z" fill="#231F20"/>
<path d="M335.9 726.6C335.9 721.4 340.1 717.2 345.3 717.2C350.5 717.2 354.7 721.4 354.7 726.6C354.7 731.8 350.5 736 345.3 736C340.1 736 335.9 731.8 335.9 726.6Z" fill="#231F20"/>
<path d="M286.3 726.6C286.3 722.5 289.6 719.2 293.7 719.2C297.8 719.2 301.1 722.5 301.1 726.6C301.1 730.7 297.8 734 293.7 734C289.6 734 286.3 730.7 286.3 726.6Z" fill="#231F20"/>
<path d="M236.8 726.6C236.8 723.7 239.2 721.3 242.1 721.3C245 721.3 247.4 723.7 247.4 726.6C247.4 729.5 245 731.9 242.1 731.9C239.1 731.9 236.8 729.5 236.8 726.6Z" fill="#231F20"/>
<path d="M189.4 726.6C189.4 726 189.9 725.6 190.4 725.6C191 725.6 191.4 726.1 191.4 726.6C191.4 727.2 190.9 727.6 190.4 727.6C189.9 727.6 189.4 727.1 189.4 726.6Z" fill="#231F20"/>
<path d="M131.4 726.6C131.4 722.5 134.7 719.2 138.8 719.2C142.9 719.2 146.2 722.5 146.2 726.6C146.2 730.7 142.9 734 138.8 734C134.7 734 131.4 730.7 131.4 726.6Z" fill="#231F20"/>
<path d="M81.9 726.6C81.9 723.7 84.3 721.3 87.2 721.3C90.1 721.3 92.5 723.7 92.5 726.6C92.5 729.5 90.1 731.9 87.2 731.9C84.2 731.9 81.9 729.5 81.9 726.6Z" fill="#231F20"/>
<path d="M26.1 726.6C26.1 721.4 30.3 717.2 35.5 717.2C40.7 717.2 44.9 721.4 44.9 726.6C44.9 731.8 40.7 736 35.5 736C30.3 736 26.1 731.8 26.1 726.6Z" fill="#231F20"/>
<path d="M1426.8 663.8C1426.8 662.2 1428.1 661 1429.6 661C1431.1 661 1432.4 662.3 1432.4 663.8C1432.4 665.3 1431.1 666.6 1429.6 666.6C1428.1 666.6 1426.8 665.4 1426.8 663.8Z" fill="#231F20"/>
<path d="M1375.4 663.8C1375.4 662.3 1376.6 661.2 1378 661.2C1379.5 661.2 1380.6 662.4 1380.6 663.8C1380.6 665.3 1379.4 666.4 1378 666.4C1376.5 666.5 1375.4 665.3 1375.4 663.8Z" fill="#231F20"/>
<path d="M1319.8 663.8C1319.8 660.1 1322.8 657.2 1326.4 657.2C1330 657.2 1333 660.2 1333 663.8C1333 667.4 1330 670.4 1326.4 670.4C1322.7 670.4 1319.8 667.5 1319.8 663.8Z" fill="#231F20"/>
<path d="M1270.2 663.8C1270.2 661.3 1272.3 659.2 1274.8 659.2C1277.3 659.2 1279.4 661.3 1279.4 663.8C1279.4 666.3 1277.3 668.4 1274.8 668.4C1272.2 668.4 1270.2 666.4 1270.2 663.8Z" fill="#231F20"/>
<path d="M1213.5 663.8C1213.5 658.5 1217.8 654.2 1223.1 654.2C1228.4 654.2 1232.7 658.5 1232.7 663.8C1232.7 669.1 1228.4 673.4 1223.1 673.4C1217.8 673.4 1213.5 669.1 1213.5 663.8Z" fill="#231F20"/>
<path d="M1165.6 663.8C1165.6 660.6 1168.2 658 1171.4 658C1174.6 658 1177.2 660.6 1177.2 663.8C1177.2 667 1174.6 669.6 1171.4 669.6C1168.2 669.7 1165.6 667.1 1165.6 663.8Z" fill="#231F20"/>
<path d="M1118.6 663.8C1118.6 663.1 1119.2 662.5 1119.9 662.5C1120.6 662.5 1121.2 663.1 1121.2 663.8C1121.2 664.5 1120.6 665.1 1119.9 665.1C1119.1 665.1 1118.6 664.5 1118.6 663.8Z" fill="#231F20"/>
<path d="M1058.6 663.8C1058.6 658.5 1062.9 654.2 1068.2 654.2C1073.5 654.2 1077.8 658.5 1077.8 663.8C1077.8 669.1 1073.5 673.4 1068.2 673.4C1062.9 673.4 1058.6 669.1 1058.6 663.8Z" fill="#231F20"/>
<path d="M1012.7 663.8C1012.7 661.6 1014.4 659.9 1016.6 659.9C1018.8 659.9 1020.5 661.6 1020.5 663.8C1020.5 666 1018.8 667.7 1016.6 667.7C1014.4 667.7 1012.7 666 1012.7 663.8Z" fill="#231F20"/>
<path d="M959 663.8C959 660.5 961.7 657.8 965 657.8C968.3 657.8 971 660.5 971 663.8C971 667.1 968.3 669.8 965 669.8C961.6 669.8 959 667.1 959 663.8Z" fill="#231F20"/>
<path d="M911.2 663.8C911.2 662.6 912.2 661.7 913.3 661.7C914.5 661.7 915.4 662.7 915.4 663.8C915.4 665 914.4 665.9 913.3 665.9C912.1 666 911.2 665 911.2 663.8Z" fill="#231F20"/>
<path d="M858.3 663.8C858.3 662 859.8 660.5 861.6 660.5C863.4 660.5 864.9 662 864.9 663.8C864.9 665.6 863.4 667.1 861.6 667.1C859.8 667.2 858.3 665.7 858.3 663.8Z" fill="#231F20"/>
<path d="M800.6 663.8C800.6 658.6 804.8 654.3 810.1 654.3C815.3 654.3 819.6 658.5 819.6 663.8C819.6 669 815.4 673.3 810.1 673.3C804.8 673.3 800.6 669 800.6 663.8Z" fill="#231F20"/>
<path d="M755.5 663.8C755.5 662.2 756.8 660.9 758.4 660.9C760 660.9 761.3 662.2 761.3 663.8C761.3 665.4 760 666.7 758.4 666.7C756.8 666.7 755.5 665.4 755.5 663.8Z" fill="#231F20"/>
<path d="M697.4 663.8C697.4 658.6 701.6 654.4 706.8 654.4C712 654.4 716.1 658.6 716.1 663.8C716.1 669 711.9 673.2 706.8 673.2C701.6 673.2 697.4 669 697.4 663.8Z" fill="#231F20"/>
<path d="M648.9 663.8C648.9 660.4 651.7 657.6 655.1 657.6C658.5 657.6 661.3 660.4 661.3 663.8C661.3 667.2 658.5 670 655.1 670C651.7 670.1 648.9 667.3 648.9 663.8Z" fill="#231F20"/>
<path d="M599.5 663.8C599.5 661.6 601.3 659.8 603.5 659.8C605.7 659.8 607.5 661.6 607.5 663.8C607.5 666 605.7 667.8 603.5 667.8C601.3 667.8 599.5 666 599.5 663.8Z" fill="#231F20"/>
<path d="M543.6 663.8C543.6 659.3 547.3 655.6 551.8 655.6C556.3 655.6 560 659.3 560 663.8C560 668.3 556.3 672 551.8 672C547.3 672 543.6 668.4 543.6 663.8Z" fill="#231F20"/>
<path d="M496.3 663.8C496.3 661.7 498 659.9 500.2 659.9C502.3 659.9 504.1 661.6 504.1 663.8C504.1 665.9 502.4 667.7 500.2 667.7C498.1 667.7 496.3 666 496.3 663.8Z" fill="#231F20"/>
<path d="M444.1 663.8C444.1 661.3 446.1 659.3 448.6 659.3C451.1 659.3 453.1 661.3 453.1 663.8C453.1 666.3 451.1 668.3 448.6 668.3C446.1 668.3 444.1 666.3 444.1 663.8Z" fill="#231F20"/>
<path d="M389.9 663.8C389.9 659.9 393.1 656.7 397 656.7C400.9 656.7 404.1 659.9 404.1 663.8C404.1 667.7 400.9 670.9 397 670.9C393.1 670.9 389.9 667.7 389.9 663.8Z" fill="#231F20"/>
<path d="M337.7 663.8C337.7 659.6 341.1 656.2 345.3 656.2C349.5 656.2 352.9 659.6 352.9 663.8C352.9 668 349.5 671.4 345.3 671.4C341.1 671.4 337.7 668 337.7 663.8Z" fill="#231F20"/>
<path d="M288.9 663.8C288.9 661.2 291 659 293.7 659C296.3 659 298.5 661.1 298.5 663.8C298.5 666.4 296.3 668.6 293.7 668.6C291.1 668.6 288.9 666.5 288.9 663.8Z" fill="#231F20"/>
<path d="M233.2 663.8C233.2 658.9 237.2 654.9 242.1 654.9C247 654.9 251 658.9 251 663.8C251 668.7 247 672.7 242.1 672.7C237.2 672.7 233.2 668.7 233.2 663.8Z" fill="#231F20"/>
<path d="M183.6 663.8C183.6 660 186.7 657 190.4 657C194.2 657 197.2 660.1 197.2 663.8C197.2 667.6 194.1 670.6 190.4 670.6C186.6 670.7 183.6 667.6 183.6 663.8Z" fill="#231F20"/>
<path d="M133.1 663.8C133.1 660.7 135.6 658.1 138.8 658.1C141.9 658.1 144.5 660.7 144.5 663.8C144.5 666.9 141.9 669.5 138.8 669.5C135.6 669.5 133.1 667 133.1 663.8Z" fill="#231F20"/>
<path d="M78.8 663.8C78.8 659.2 82.5 655.5 87.1 655.5C91.7 655.5 95.4 659.2 95.4 663.8C95.4 668.4 91.7 672.1 87.1 672.1C82.6 672.1 78.8 668.4 78.8 663.8Z" fill="#231F20"/>
<path d="M29.4 663.8C29.4 660.4 32.2 657.6 35.6 657.6C39 657.6 41.8 660.4 41.8 663.8C41.8 667.2 39.1 670 35.6 670C32.1 670 29.4 667.2 29.4 663.8Z" fill="#231F20"/>
<path d="M1419.9 601.1C1419.9 595.7 1424.3 591.3 1429.7 591.3C1435.1 591.3 1439.5 595.7 1439.5 601.1C1439.5 606.5 1435.1 610.9 1429.7 610.9C1424.2 610.9 1419.9 606.5 1419.9 601.1Z" fill="#231F20"/>
<path d="M1376.6 601.1C1376.6 600.3 1377.2 599.7 1378 599.7C1378.8 599.7 1379.4 600.3 1379.4 601.1C1379.4 601.9 1378.8 602.5 1378 602.5C1377.3 602.4 1376.6 601.8 1376.6 601.1Z" fill="#231F20"/>
<path d="M1323 601.1C1323 599.2 1324.5 597.7 1326.4 597.7C1328.3 597.7 1329.8 599.2 1329.8 601.1C1329.8 603 1328.3 604.5 1326.4 604.5C1324.5 604.5 1323 602.9 1323 601.1Z" fill="#231F20"/>
<path d="M1267 601.1C1267 596.8 1270.5 593.4 1274.7 593.4C1279 593.4 1282.4 596.9 1282.4 601.1C1282.4 605.4 1278.9 608.8 1274.7 608.8C1270.5 608.8 1267 605.3 1267 601.1Z" fill="#231F20"/>
<path d="M1214.5 601.1C1214.5 596.3 1218.3 592.5 1223.1 592.5C1227.9 592.5 1231.7 596.4 1231.7 601.1C1231.7 605.9 1227.8 609.7 1223.1 609.7C1218.3 609.7 1214.5 605.8 1214.5 601.1Z" fill="#231F20"/>
<path d="M1165.1 601.1C1165.1 597.6 1168 594.7 1171.5 594.7C1175 594.7 1177.9 597.6 1177.9 601.1C1177.9 604.6 1175 607.5 1171.5 607.5C1167.9 607.5 1165.1 604.6 1165.1 601.1Z" fill="#231F20"/>
<path d="M1114.5 601.1C1114.5 598.1 1116.9 595.7 1119.9 595.7C1122.9 595.7 1125.3 598.1 1125.3 601.1C1125.3 604.1 1122.9 606.5 1119.9 606.5C1116.9 606.4 1114.5 604 1114.5 601.1Z" fill="#231F20"/>
<path d="M1063.5 601.1C1063.5 598.5 1065.6 596.4 1068.2 596.4C1070.8 596.4 1072.9 598.5 1072.9 601.1C1072.9 603.7 1070.8 605.8 1068.2 605.8C1065.6 605.8 1063.5 603.7 1063.5 601.1Z" fill="#231F20"/>
<path d="M1011.5 601.1C1011.5 598.3 1013.8 596 1016.6 596C1019.4 596 1021.7 598.3 1021.7 601.1C1021.7 603.9 1019.4 606.2 1016.6 606.2C1013.8 606.1 1011.5 603.9 1011.5 601.1Z" fill="#231F20"/>
<path d="M963.5 601.1C963.5 600.3 964.1 599.7 964.9 599.7C965.7 599.7 966.3 600.3 966.3 601.1C966.3 601.9 965.7 602.5 964.9 602.5C964.2 602.5 963.5 601.9 963.5 601.1Z" fill="#231F20"/>
<path d="M909.4 601.1C909.4 598.9 911.2 597.2 913.3 597.2C915.5 597.2 917.2 599 917.2 601.1C917.2 603.3 915.4 605 913.3 605C911.1 605 909.4 603.2 909.4 601.1Z" fill="#231F20"/>
<path d="M852.2 601.1C852.2 595.9 856.4 591.6 861.7 591.6C866.9 591.6 871.2 595.8 871.2 601.1C871.2 606.3 867 610.6 861.7 610.6C856.4 610.5 852.2 606.3 852.2 601.1Z" fill="#231F20"/>
<path d="M809 601.1C809 600.5 809.5 600.1 810 600.1C810.6 600.1 811 600.6 811 601.1C811 601.7 810.5 602.1 810 602.1C809.5 602.1 809 601.6 809 601.1Z" fill="#231F20"/>
<path d="M748.6 601.1C748.6 595.7 753 591.3 758.4 591.3C763.8 591.3 768.2 595.7 768.2 601.1C768.2 606.5 763.8 610.9 758.4 610.9C753 610.8 748.6 606.5 748.6 601.1Z" fill="#231F20"/>
<path d="M705 601.1C705 600.1 705.8 599.4 706.7 599.4C707.7 599.4 708.4 600.2 708.4 601.1C708.4 602 707.6 602.8 706.7 602.8C705.8 602.8 705 602 705 601.1Z" fill="#231F20"/>
<path d="M651.2 601.1C651.2 598.9 653 597.2 655.1 597.2C657.3 597.2 659 599 659 601.1C659 603.3 657.3 605 655.1 605C653 605 651.2 603.2 651.2 601.1Z" fill="#231F20"/>
<path d="M600.6 601.1C600.6 599.5 601.9 598.2 603.5 598.2C605.1 598.2 606.4 599.5 606.4 601.1C606.4 602.7 605.1 604 603.5 604C601.9 604 600.6 602.7 600.6 601.1Z" fill="#231F20"/>
<path d="M550.7 601.1C550.7 600.4 551.2 599.9 551.9 599.9C552.6 599.9 553.1 600.4 553.1 601.1C553.1 601.8 552.6 602.3 551.9 602.3C551.2 602.3 550.7 601.7 550.7 601.1Z" fill="#231F20"/>
<path d="M497.6 601.1C497.6 599.6 498.8 598.5 500.2 598.5C501.7 598.5 502.8 599.7 502.8 601.1C502.8 602.6 501.6 603.7 500.2 603.7C498.8 603.7 497.6 602.5 497.6 601.1Z" fill="#231F20"/>
<path d="M444.8 601.1C444.8 599 446.5 597.3 448.6 597.3C450.7 597.3 452.4 599 452.4 601.1C452.4 603.2 450.7 604.9 448.6 604.9C446.5 604.8 444.8 603.1 444.8 601.1Z" fill="#231F20"/>
<path d="M388.3 601.1C388.3 596.3 392.2 592.4 397 592.4C401.8 592.4 405.7 596.3 405.7 601.1C405.7 605.9 401.8 609.8 397 609.8C392.2 609.7 388.3 605.8 388.3 601.1Z" fill="#231F20"/>
<path d="M338.5 601.1C338.5 597.3 341.6 594.2 345.4 594.2C349.2 594.2 352.3 597.3 352.3 601.1C352.3 604.9 349.2 608 345.4 608C341.5 607.9 338.5 604.9 338.5 601.1Z" fill="#231F20"/>
<path d="M287.6 601.1C287.6 597.8 290.3 595 293.6 595C297 595 299.7 597.7 299.7 601.1C299.7 604.4 297 607.1 293.6 607.1C290.3 607.1 287.6 604.4 287.6 601.1Z" fill="#231F20"/>
<path d="M234.2 601.1C234.2 596.8 237.7 593.3 242 593.3C246.3 593.3 249.8 596.8 249.8 601.1C249.8 605.4 246.3 608.9 242 608.9C237.7 608.9 234.2 605.4 234.2 601.1Z" fill="#231F20"/>
<path d="M187.6 601.1C187.6 599.6 188.9 598.3 190.4 598.3C191.9 598.3 193.2 599.5 193.2 601.1C193.2 602.6 191.9 603.9 190.4 603.9C188.9 603.9 187.6 602.6 187.6 601.1Z" fill="#231F20"/>
<path d="M129.2 601.1C129.2 595.8 133.5 591.5 138.8 591.5C144.1 591.5 148.4 595.8 148.4 601.1C148.4 606.4 144.1 610.7 138.8 610.7C133.5 610.7 129.2 606.4 129.2 601.1Z" fill="#231F20"/>
<path d="M78.5 601.1C78.5 596.3 82.4 592.4 87.2 592.4C92 592.4 95.9 596.3 95.9 601.1C95.9 605.9 92 609.8 87.2 609.8C82.4 609.7 78.5 605.9 78.5 601.1Z" fill="#231F20"/>
<path d="M26.6 601.1C26.6 596.2 30.6 592.2 35.5 592.2C40.4 592.2 44.4 596.2 44.4 601.1C44.4 606 40.4 610 35.5 610C30.6 609.9 26.6 606 26.6 601.1Z" fill="#231F20"/>
<path d="M1426.2 538.3C1426.2 536.4 1427.8 534.8 1429.7 534.8C1431.6 534.8 1433.2 536.4 1433.2 538.3C1433.2 540.2 1431.6 541.8 1429.7 541.8C1427.7 541.8 1426.2 540.2 1426.2 538.3Z" fill="#231F20"/>
<path d="M1371.8 538.3C1371.8 534.9 1374.6 532.1 1378 532.1C1381.4 532.1 1384.2 534.9 1384.2 538.3C1384.2 541.7 1381.4 544.5 1378 544.5C1374.6 544.5 1371.8 541.7 1371.8 538.3Z" fill="#231F20"/>
<path d="M1319.6 538.3C1319.6 534.5 1322.7 531.5 1326.4 531.5C1330.2 531.5 1333.2 534.5 1333.2 538.3C1333.2 542.1 1330.1 545.1 1326.4 545.1C1322.6 545.1 1319.6 542.1 1319.6 538.3Z" fill="#231F20"/>
<path d="M1265.8 538.3C1265.8 533.4 1269.8 529.3 1274.8 529.3C1279.7 529.3 1283.8 533.3 1283.8 538.3C1283.8 543.2 1279.8 547.3 1274.8 547.3C1269.8 547.3 1265.8 543.2 1265.8 538.3Z" fill="#231F20"/>
<path d="M1219.9 538.3C1219.9 536.5 1221.3 535.1 1223.1 535.1C1224.9 535.1 1226.3 536.5 1226.3 538.3C1226.3 540.1 1224.9 541.5 1223.1 541.5C1221.3 541.5 1219.9 540.1 1219.9 538.3Z" fill="#231F20"/>
<path d="M1169.3 538.3C1169.3 537.1 1170.3 536.1 1171.5 536.1C1172.7 536.1 1173.7 537.1 1173.7 538.3C1173.7 539.5 1172.7 540.5 1171.5 540.5C1170.3 540.5 1169.3 539.5 1169.3 538.3Z" fill="#231F20"/>
<path d="M1116.8 538.3C1116.8 536.6 1118.1 535.3 1119.8 535.3C1121.5 535.3 1122.8 536.6 1122.8 538.3C1122.8 539.9 1121.5 541.3 1119.8 541.3C1118.2 541.3 1116.8 539.9 1116.8 538.3Z" fill="#231F20"/>
<path d="M1063.8 538.3C1063.8 535.9 1065.8 533.9 1068.2 533.9C1070.6 533.9 1072.6 535.9 1072.6 538.3C1072.6 540.7 1070.6 542.7 1068.2 542.7C1065.8 542.7 1063.8 540.7 1063.8 538.3Z" fill="#231F20"/>
<path d="M1012.2 538.3C1012.2 535.9 1014.2 533.9 1016.6 533.9C1019 533.9 1021 535.9 1021 538.3C1021 540.7 1019 542.7 1016.6 542.7C1014.2 542.7 1012.2 540.7 1012.2 538.3Z" fill="#231F20"/>
<path d="M959.2 538.3C959.2 535.1 961.8 532.5 965 532.5C968.2 532.5 970.8 535.1 970.8 538.3C970.8 541.5 968.2 544.1 965 544.1C961.8 544.1 959.2 541.5 959.2 538.3Z" fill="#231F20"/>
<path d="M906.6 538.3C906.6 534.6 909.6 531.6 913.3 531.6C917 531.6 920 534.6 920 538.3C920 542 917 545 913.3 545C909.6 545 906.6 542 906.6 538.3Z" fill="#231F20"/>
<path d="M857.4 538.3C857.4 535.9 859.3 534 861.7 534C864.1 534 866 535.9 866 538.3C866 540.7 864.1 542.6 861.7 542.6C859.3 542.6 857.4 540.7 857.4 538.3Z" fill="#231F20"/>
<path d="M808.6 538.3C808.6 537.5 809.3 536.8 810.1 536.8C810.9 536.8 811.6 537.5 811.6 538.3C811.6 539.1 810.9 539.8 810.1 539.8C809.2 539.8 808.6 539.1 808.6 538.3Z" fill="#231F20"/>
<path d="M752.4 538.3C752.4 535 755.1 532.3 758.4 532.3C761.7 532.3 764.4 535 764.4 538.3C764.4 541.6 761.7 544.3 758.4 544.3C755.1 544.3 752.4 541.6 752.4 538.3Z" fill="#231F20"/>
<path d="M702.8 538.3C702.8 536.1 704.6 534.4 706.7 534.4C708.9 534.4 710.6 536.2 710.6 538.3C710.6 540.5 708.9 542.2 706.7 542.2C704.6 542.2 702.8 540.5 702.8 538.3Z" fill="#231F20"/>
<path d="M654.1 538.3C654.1 537.7 654.6 537.2 655.2 537.2C655.8 537.2 656.3 537.7 656.3 538.3C656.3 538.9 655.8 539.4 655.2 539.4C654.5 539.4 654.1 538.9 654.1 538.3Z" fill="#231F20"/>
<path d="M597.9 538.3C597.9 535.2 600.4 532.7 603.5 532.7C606.6 532.7 609.1 535.2 609.1 538.3C609.1 541.4 606.6 543.9 603.5 543.9C600.4 543.9 597.9 541.4 597.9 538.3Z" fill="#231F20"/>
<path d="M545.1 538.3C545.1 534.6 548.1 531.5 551.9 531.5C555.6 531.5 558.7 534.5 558.7 538.3C558.7 542 555.7 545.1 551.9 545.1C548.1 545.1 545.1 542 545.1 538.3Z" fill="#231F20"/>
<path d="M491.3 538.3C491.3 533.4 495.3 529.4 500.2 529.4C505.1 529.4 509.1 533.4 509.1 538.3C509.1 543.2 505.1 547.2 500.2 547.2C495.3 547.2 491.3 543.2 491.3 538.3Z" fill="#231F20"/>
<path d="M440 538.3C440 533.6 443.8 529.7 448.6 529.7C453.3 529.7 457.2 533.5 457.2 538.3C457.2 543 453.4 546.9 448.6 546.9C443.9 546.9 440 543 440 538.3Z" fill="#231F20"/>
<path d="M387.3 538.3C387.3 533 391.6 528.7 396.9 528.7C402.2 528.7 406.5 533 406.5 538.3C406.5 543.6 402.2 547.9 396.9 547.9C391.6 547.9 387.3 543.6 387.3 538.3Z" fill="#231F20"/>
<path d="M338 538.3C338 534.3 341.3 531 345.3 531C349.3 531 352.6 534.3 352.6 538.3C352.6 542.3 349.3 545.6 345.3 545.6C341.3 545.6 338 542.3 338 538.3Z" fill="#231F20"/>
<path d="M290.1 538.3C290.1 536.3 291.7 534.7 293.7 534.7C295.7 534.7 297.3 536.3 297.3 538.3C297.3 540.3 295.7 541.9 293.7 541.9C291.7 541.9 290.1 540.3 290.1 538.3Z" fill="#231F20"/>
<path d="M238.7 538.3C238.7 536.4 240.2 534.9 242.1 534.9C244 534.9 245.5 536.4 245.5 538.3C245.5 540.2 244 541.7 242.1 541.7C240.2 541.7 238.7 540.2 238.7 538.3Z" fill="#231F20"/>
<path d="M188.8 538.3C188.8 537.4 189.5 536.7 190.4 536.7C191.3 536.7 192 537.4 192 538.3C192 539.2 191.3 539.9 190.4 539.9C189.5 539.9 188.8 539.2 188.8 538.3Z" fill="#231F20"/>
<path d="M129 538.3C129 532.9 133.4 528.5 138.8 528.5C144.2 528.5 148.6 532.9 148.6 538.3C148.6 543.7 144.2 548.1 138.8 548.1C133.4 548.1 129 543.7 129 538.3Z" fill="#231F20"/>
<path d="M78 538.3C78 533.2 82.1 529.1 87.2 529.1C92.3 529.1 96.4 533.2 96.4 538.3C96.4 543.4 92.3 547.5 87.2 547.5C82.1 547.5 78 543.4 78 538.3Z" fill="#231F20"/>
<path d="M26.4 538.3C26.4 533.3 30.5 529.2 35.5 529.2C40.5 529.2 44.6 533.3 44.6 538.3C44.6 543.3 40.5 547.4 35.5 547.4C30.5 547.4 26.4 543.3 26.4 538.3Z" fill="#231F20"/>
<path d="M1422.5 475.5C1422.5 471.5 1425.7 468.3 1429.7 468.3C1433.7 468.3 1436.9 471.5 1436.9 475.5C1436.9 479.5 1433.7 482.7 1429.7 482.7C1425.7 482.7 1422.5 479.5 1422.5 475.5Z" fill="#231F20"/>
<path d="M1374.8 475.5C1374.8 473.7 1376.2 472.3 1378 472.3C1379.8 472.3 1381.2 473.7 1381.2 475.5C1381.2 477.3 1379.7 478.7 1378 478.7C1376.2 478.8 1374.8 477.3 1374.8 475.5Z" fill="#231F20"/>
<path d="M1324.2 475.5C1324.2 474.3 1325.2 473.3 1326.4 473.3C1327.6 473.3 1328.6 474.3 1328.6 475.5C1328.6 476.7 1327.6 477.7 1326.4 477.7C1325.2 477.7 1324.2 476.7 1324.2 475.5Z" fill="#231F20"/>
<path d="M1273.1 475.5C1273.1 474.6 1273.8 473.9 1274.7 473.9C1275.6 473.9 1276.3 474.6 1276.3 475.5C1276.3 476.4 1275.6 477.1 1274.7 477.1C1273.8 477.2 1273.1 476.4 1273.1 475.5Z" fill="#231F20"/>
<path d="M1214.1 475.5C1214.1 470.5 1218.1 466.5 1223.1 466.5C1228.1 466.5 1232.1 470.5 1232.1 475.5C1232.1 480.5 1228.1 484.5 1223.1 484.5C1218.2 484.5 1214.1 480.5 1214.1 475.5Z" fill="#231F20"/>
<path d="M1166.7 475.5C1166.7 472.8 1168.9 470.7 1171.5 470.7C1174.2 470.7 1176.3 472.9 1176.3 475.5C1176.3 478.2 1174.1 480.3 1171.5 480.3C1168.8 480.3 1166.7 478.2 1166.7 475.5Z" fill="#231F20"/>
<path d="M1116.8 475.5C1116.8 473.8 1118.2 472.4 1119.9 472.4C1121.6 472.4 1123 473.8 1123 475.5C1123 477.2 1121.6 478.6 1119.9 478.6C1118.1 478.6 1116.8 477.2 1116.8 475.5Z" fill="#231F20"/>
<path d="M1063.5 475.5C1063.5 472.9 1065.6 470.8 1068.2 470.8C1070.8 470.8 1072.9 472.9 1072.9 475.5C1072.9 478.1 1070.8 480.2 1068.2 480.2C1065.6 480.3 1063.5 478.1 1063.5 475.5Z" fill="#231F20"/>
<path d="M1013.8 475.5C1013.8 474 1015 472.8 1016.5 472.8C1018 472.8 1019.2 474 1019.2 475.5C1019.2 477 1018 478.2 1016.5 478.2C1015.1 478.3 1013.8 477 1013.8 475.5Z" fill="#231F20"/>
<path d="M958.5 475.5C958.5 472 961.4 469.1 964.9 469.1C968.4 469.1 971.3 472 971.3 475.5C971.3 479 968.4 481.9 964.9 481.9C961.4 481.9 958.5 479.1 958.5 475.5Z" fill="#231F20"/>
<path d="M905.2 475.5C905.2 471 908.8 467.4 913.3 467.4C917.8 467.4 921.4 471 921.4 475.5C921.4 480 917.8 483.6 913.3 483.6C908.8 483.7 905.2 480 905.2 475.5Z" fill="#231F20"/>
<path d="M852.3 475.5C852.3 470.3 856.5 466.1 861.7 466.1C866.9 466.1 871.1 470.3 871.1 475.5C871.1 480.7 866.9 484.9 861.7 484.9C856.5 484.9 852.3 480.7 852.3 475.5Z" fill="#231F20"/>
<path d="M805.4 475.5C805.4 473 807.5 470.9 810 470.9C812.5 470.9 814.6 473 814.6 475.5C814.6 478 812.5 480.1 810 480.1C807.5 480.1 805.4 478.1 805.4 475.5Z" fill="#231F20"/>
<path d="M752.8 475.5C752.8 472.4 755.3 469.9 758.4 469.9C761.5 469.9 764 472.4 764 475.5C764 478.6 761.5 481.1 758.4 481.1C755.3 481.1 752.8 478.6 752.8 475.5Z" fill="#231F20"/>
<path d="M702.8 475.5C702.8 473.3 704.6 471.6 706.7 471.6C708.9 471.6 710.6 473.4 710.6 475.5C710.6 477.7 708.8 479.4 706.7 479.4C704.6 479.5 702.8 477.7 702.8 475.5Z" fill="#231F20"/>
<path d="M652 475.5C652 473.8 653.4 472.4 655.1 472.4C656.8 472.4 658.2 473.8 658.2 475.5C658.2 477.2 656.8 478.6 655.1 478.6C653.4 478.7 652 477.3 652 475.5Z" fill="#231F20"/>
<path d="M597.7 475.5C597.7 472.3 600.3 469.7 603.4 469.7C606.6 469.7 609.1 472.3 609.1 475.5C609.1 478.7 606.5 481.2 603.4 481.2C600.3 481.3 597.7 478.7 597.7 475.5Z" fill="#231F20"/>
<path d="M543.3 475.5C543.3 470.8 547.1 467 551.9 467C556.6 467 560.4 470.8 560.4 475.5C560.4 480.2 556.6 484 551.9 484C547.1 484.1 543.3 480.3 543.3 475.5Z" fill="#231F20"/>
<path d="M494.6 475.5C494.6 472.4 497.1 469.9 500.2 469.9C503.3 469.9 505.8 472.4 505.8 475.5C505.8 478.6 503.3 481.1 500.2 481.1C497.1 481.2 494.6 478.6 494.6 475.5Z" fill="#231F20"/>
<path d="M446.8 475.5C446.8 474.5 447.6 473.7 448.6 473.7C449.6 473.7 450.4 474.5 450.4 475.5C450.4 476.5 449.6 477.3 448.6 477.3C447.6 477.3 446.8 476.5 446.8 475.5Z" fill="#231F20"/>
<path d="M395.2 475.5C395.2 474.5 396 473.7 397 473.7C398 473.7 398.8 474.5 398.8 475.5C398.8 476.5 398 477.3 397 477.3C396 477.3 395.2 476.5 395.2 475.5Z" fill="#231F20"/>
<path d="M343.1 475.5C343.1 474.3 344.1 473.3 345.3 473.3C346.5 473.3 347.5 474.3 347.5 475.5C347.5 476.7 346.5 477.7 345.3 477.7C344.1 477.7 343.1 476.8 343.1 475.5Z" fill="#231F20"/>
<path d="M288.1 475.5C288.1 472.4 290.6 469.9 293.7 469.9C296.8 469.9 299.3 472.4 299.3 475.5C299.3 478.6 296.8 481.1 293.7 481.1C290.6 481.2 288.1 478.7 288.1 475.5Z" fill="#231F20"/>
<path d="M236.8 475.5C236.8 472.6 239.1 470.3 242 470.3C244.9 470.3 247.2 472.6 247.2 475.5C247.2 478.4 244.9 480.7 242 480.7C239.2 480.8 236.8 478.4 236.8 475.5Z" fill="#231F20"/>
<path d="M182.5 475.5C182.5 471.1 186 467.6 190.4 467.6C194.8 467.6 198.3 471.1 198.3 475.5C198.3 479.9 194.8 483.4 190.4 483.4C186.1 483.5 182.5 479.9 182.5 475.5Z" fill="#231F20"/>
<path d="M132 475.5C132 471.7 135 468.7 138.8 468.7C142.6 468.7 145.6 471.7 145.6 475.5C145.6 479.3 142.6 482.3 138.8 482.3C135 482.3 132 479.3 132 475.5Z" fill="#231F20"/>
<path d="M84.6 475.5C84.6 474.1 85.7 473 87.1 473C88.5 473 89.6 474.1 89.6 475.5C89.6 476.9 88.5 478 87.1 478C85.8 478.1 84.6 476.9 84.6 475.5Z" fill="#231F20"/>
<path d="M28.4 475.5C28.4 471.5 31.6 468.3 35.6 468.3C39.5 468.3 42.8 471.5 42.8 475.5C42.8 479.4 39.6 482.7 35.6 482.7C31.6 482.7 28.4 479.5 28.4 475.5Z" fill="#231F20"/>
<path d="M1421.7 412.8C1421.7 408.4 1425.2 404.9 1429.6 404.9C1434 404.9 1437.5 408.4 1437.5 412.8C1437.5 417.2 1434 420.7 1429.6 420.7C1425.3 420.7 1421.7 417.1 1421.7 412.8Z" fill="#231F20"/>
<path d="M1372.7 412.8C1372.7 409.9 1375.1 407.5 1378 407.5C1380.9 407.5 1383.3 409.9 1383.3 412.8C1383.3 415.7 1380.9 418.1 1378 418.1C1375.1 418.1 1372.7 415.7 1372.7 412.8Z" fill="#231F20"/>
<path d="M1322.7 412.8C1322.7 410.8 1324.3 409.2 1326.3 409.2C1328.3 409.2 1329.9 410.8 1329.9 412.8C1329.9 414.8 1328.3 416.4 1326.3 416.4C1324.4 416.4 1322.7 414.8 1322.7 412.8Z" fill="#231F20"/>
<path d="M1270.6 412.8C1270.6 410.5 1272.4 408.7 1274.7 408.7C1277 408.7 1278.8 410.5 1278.8 412.8C1278.8 415.1 1277 416.9 1274.7 416.9C1272.5 416.9 1270.6 415 1270.6 412.8Z" fill="#231F20"/>
<path d="M1220.6 412.8C1220.6 411.4 1221.7 410.2 1223.2 410.2C1224.6 410.2 1225.8 411.3 1225.8 412.8C1225.8 414.2 1224.7 415.4 1223.2 415.4C1221.7 415.3 1220.6 414.2 1220.6 412.8Z" fill="#231F20"/>
<path d="M1162.5 412.8C1162.5 407.9 1166.5 403.9 1171.4 403.9C1176.3 403.9 1180.3 407.9 1180.3 412.8C1180.3 417.7 1176.3 421.7 1171.4 421.7C1166.5 421.7 1162.5 417.7 1162.5 412.8Z" fill="#231F20"/>
<path d="M1115.2 412.8C1115.2 410.3 1117.3 408.2 1119.8 408.2C1122.3 408.2 1124.4 410.3 1124.4 412.8C1124.4 415.3 1122.3 417.4 1119.8 417.4C1117.3 417.4 1115.2 415.3 1115.2 412.8Z" fill="#231F20"/>
<path d="M1060.8 412.8C1060.8 408.7 1064.1 405.4 1068.2 405.4C1072.3 405.4 1075.6 408.7 1075.6 412.8C1075.6 416.9 1072.3 420.2 1068.2 420.2C1064.1 420.1 1060.8 416.8 1060.8 412.8Z" fill="#231F20"/>
<path d="M1009 412.8C1009 408.6 1012.4 405.2 1016.6 405.2C1020.8 405.2 1024.2 408.6 1024.2 412.8C1024.2 417 1020.8 420.4 1016.6 420.4C1012.4 420.4 1009 417 1009 412.8Z" fill="#231F20"/>
<path d="M960.5 412.8C960.5 410.4 962.5 408.4 964.9 408.4C967.4 408.4 969.3 410.4 969.3 412.8C969.3 415.2 967.3 417.2 964.9 417.2C962.5 417.2 960.5 415.2 960.5 412.8Z" fill="#231F20"/>
<path d="M906.5 412.8C906.5 409 909.6 406 913.3 406C917.1 406 920.1 409.1 920.1 412.8C920.1 416.6 917 419.6 913.3 419.6C909.5 419.6 906.5 416.6 906.5 412.8Z" fill="#231F20"/>
<path d="M857 412.8C857 410.2 859.1 408.1 861.7 408.1C864.3 408.1 866.4 410.2 866.4 412.8C866.4 415.4 864.3 417.5 861.7 417.5C859.1 417.4 857 415.4 857 412.8Z" fill="#231F20"/>
<path d="M803.5 412.8C803.5 409.2 806.4 406.2 810.1 406.2C813.7 406.2 816.7 409.1 816.7 412.8C816.7 416.4 813.8 419.4 810.1 419.4C806.4 419.3 803.5 416.4 803.5 412.8Z" fill="#231F20"/>
<path d="M752 412.8C752 409.2 754.9 406.4 758.4 406.4C762 406.4 764.8 409.3 764.8 412.8C764.8 416.4 761.9 419.2 758.4 419.2C754.8 419.2 752 416.3 752 412.8Z" fill="#231F20"/>
<path d="M697.8 412.8C697.8 407.9 701.8 403.9 706.7 403.9C711.6 403.9 715.6 407.9 715.6 412.8C715.6 417.7 711.6 421.7 706.7 421.7C701.8 421.7 697.8 417.7 697.8 412.8Z" fill="#231F20"/>
<path d="M650 412.8C650 409.9 652.3 407.6 655.2 407.6C658.1 407.6 660.4 409.9 660.4 412.8C660.4 415.7 658.1 418 655.2 418C652.3 418 650 415.6 650 412.8Z" fill="#231F20"/>
<path d="M600.8 412.8C600.8 411.3 602 410.1 603.5 410.1C605 410.1 606.2 411.3 606.2 412.8C606.2 414.3 605 415.5 603.5 415.5C602 415.5 600.8 414.3 600.8 412.8Z" fill="#231F20"/>
<path d="M546.5 412.8C546.5 409.9 548.9 407.5 551.8 407.5C554.7 407.5 557.1 409.9 557.1 412.8C557.1 415.7 554.7 418.1 551.8 418.1C548.9 418.1 546.5 415.7 546.5 412.8Z" fill="#231F20"/>
<path d="M497 412.8C497 411 498.5 409.5 500.3 409.5C502.1 409.5 503.6 411 503.6 412.8C503.6 414.6 502.1 416.1 500.3 416.1C498.4 416 497 414.6 497 412.8Z" fill="#231F20"/>
<path d="M442.8 412.8C442.8 409.6 445.4 407 448.6 407C451.8 407 454.4 409.6 454.4 412.8C454.4 416 451.8 418.6 448.6 418.6C445.4 418.6 442.8 416 442.8 412.8Z" fill="#231F20"/>
<path d="M390.1 412.8C390.1 409 393.2 405.9 397 405.9C400.8 405.9 403.9 409 403.9 412.8C403.9 416.6 400.8 419.7 397 419.7C393.2 419.7 390.1 416.6 390.1 412.8Z" fill="#231F20"/>
<path d="M340.1 412.8C340.1 409.9 342.4 407.6 345.3 407.6C348.2 407.6 350.5 409.9 350.5 412.8C350.5 415.7 348.2 418 345.3 418C342.5 418 340.1 415.6 340.1 412.8Z" fill="#231F20"/>
<path d="M290.8 412.8C290.8 411.2 292.1 410 293.6 410C295.2 410 296.4 411.3 296.4 412.8C296.4 414.4 295.1 415.6 293.6 415.6C292.1 415.6 290.8 414.3 290.8 412.8Z" fill="#231F20"/>
<path d="M237.7 412.8C237.7 410.4 239.6 408.5 242 408.5C244.4 408.5 246.3 410.4 246.3 412.8C246.3 415.2 244.4 417.1 242 417.1C239.7 417.1 237.7 415.2 237.7 412.8Z" fill="#231F20"/>
<path d="M182.7 412.8C182.7 408.5 186.2 405.1 190.4 405.1C194.7 405.1 198.1 408.6 198.1 412.8C198.1 417.1 194.6 420.5 190.4 420.5C186.2 420.5 182.7 417 182.7 412.8Z" fill="#231F20"/>
<path d="M132.7 412.8C132.7 409.4 135.4 406.7 138.8 406.7C142.2 406.7 144.9 409.4 144.9 412.8C144.9 416.2 142.2 418.9 138.8 418.9C135.4 418.9 132.7 416.2 132.7 412.8Z" fill="#231F20"/>
<path d="M83 412.8C83 410.5 84.9 408.6 87.2 408.6C89.5 408.6 91.4 410.5 91.4 412.8C91.4 415.1 89.5 417 87.2 417C84.8 417 83 415.1 83 412.8Z" fill="#231F20"/>
<path d="M29.2 412.8C29.2 409.3 32 406.5 35.5 406.5C39 406.5 41.8 409.3 41.8 412.8C41.8 416.3 39 419.1 35.5 419.1C32 419.1 29.2 416.3 29.2 412.8Z" fill="#231F20"/>
<path d="M1426.2 350C1426.2 348.1 1427.7 346.6 1429.6 346.6C1431.5 346.6 1433 348.1 1433 350C1433 351.9 1431.5 353.4 1429.6 353.4C1427.8 353.4 1426.2 351.9 1426.2 350Z" fill="#231F20"/>
<path d="M1375.7 350C1375.7 348.7 1376.7 347.7 1378 347.7C1379.3 347.7 1380.3 348.7 1380.3 350C1380.3 351.3 1379.3 352.3 1378 352.3C1376.7 352.3 1375.7 351.3 1375.7 350Z" fill="#231F20"/>
<path d="M1324.7 350C1324.7 349.1 1325.5 348.3 1326.4 348.3C1327.3 348.3 1328.1 349.1 1328.1 350C1328.1 350.9 1327.3 351.7 1326.4 351.7C1325.5 351.7 1324.7 350.9 1324.7 350Z" fill="#231F20"/>
<path d="M1265.9 350C1265.9 345.1 1269.9 341.1 1274.8 341.1C1279.7 341.1 1283.7 345.1 1283.7 350C1283.7 354.9 1279.7 358.9 1274.8 358.9C1269.8 358.9 1265.9 354.9 1265.9 350Z" fill="#231F20"/>
<path d="M1218.9 350C1218.9 347.7 1220.8 345.8 1223.1 345.8C1225.4 345.8 1227.3 347.7 1227.3 350C1227.3 352.3 1225.4 354.2 1223.1 354.2C1220.8 354.2 1218.9 352.3 1218.9 350Z" fill="#231F20"/>
<path d="M1162.9 350C1162.9 345.3 1166.7 341.5 1171.4 341.5C1176.1 341.5 1179.9 345.3 1179.9 350C1179.9 354.7 1176.1 358.5 1171.4 358.5C1166.8 358.6 1162.9 354.7 1162.9 350Z" fill="#231F20"/>
<path d="M1117.2 350C1117.2 348.5 1118.4 347.4 1119.8 347.4C1121.3 347.4 1122.4 348.6 1122.4 350C1122.4 351.5 1121.2 352.6 1119.8 352.6C1118.4 352.7 1117.2 351.5 1117.2 350Z" fill="#231F20"/>
<path d="M1063 350C1063 347.1 1065.4 344.7 1068.3 344.7C1071.2 344.7 1073.6 347.1 1073.6 350C1073.6 352.9 1071.2 355.3 1068.3 355.3C1065.3 355.3 1063 352.9 1063 350Z" fill="#231F20"/>
<path d="M1010 350C1010 346.3 1013 343.4 1016.6 343.4C1020.3 343.4 1023.2 346.4 1023.2 350C1023.2 353.7 1020.2 356.6 1016.6 356.6C1012.9 356.6 1010 353.7 1010 350Z" fill="#231F20"/>
<path d="M963.5 350C963.5 349.2 964.2 348.5 965 348.5C965.8 348.5 966.5 349.2 966.5 350C966.5 350.8 965.8 351.5 965 351.5C964.1 351.5 963.5 350.8 963.5 350Z" fill="#231F20"/>
<path d="M909.1 350C909.1 347.7 911 345.8 913.3 345.8C915.6 345.8 917.5 347.7 917.5 350C917.5 352.3 915.6 354.2 913.3 354.2C911 354.2 909.1 352.3 909.1 350Z" fill="#231F20"/>
<path d="M857.5 350C857.5 347.7 859.4 345.8 861.7 345.8C864 345.8 865.9 347.7 865.9 350C865.9 352.3 864 354.2 861.7 354.2C859.4 354.2 857.5 352.3 857.5 350Z" fill="#231F20"/>
<path d="M806 350C806 347.7 807.8 345.9 810.1 345.9C812.4 345.9 814.2 347.7 814.2 350C814.2 352.3 812.4 354.1 810.1 354.1C807.8 354.1 806 352.3 806 350Z" fill="#231F20"/>
<path d="M756.5 350C756.5 349 757.3 348.1 758.4 348.1C759.4 348.1 760.3 348.9 760.3 350C760.3 351 759.5 351.9 758.4 351.9C757.4 351.9 756.5 351.1 756.5 350Z" fill="#231F20"/>
<path d="M705.6 350C705.6 349.4 706.1 348.8 706.8 348.8C707.4 348.8 708 349.3 708 350C708 350.6 707.5 351.2 706.8 351.2C706.1 351.2 705.6 350.7 705.6 350Z" fill="#231F20"/>
<path d="M649.8 350C649.8 347.1 652.2 344.7 655.1 344.7C658 344.7 660.4 347.1 660.4 350C660.4 352.9 658 355.3 655.1 355.3C652.2 355.3 649.8 353 649.8 350Z" fill="#231F20"/>
<path d="M596.1 350C596.1 345.9 599.4 342.6 603.5 342.6C607.6 342.6 610.9 345.9 610.9 350C610.9 354.1 607.6 357.4 603.5 357.4C599.4 357.5 596.1 354.1 596.1 350Z" fill="#231F20"/>
<path d="M545.5 350C545.5 346.5 548.3 343.7 551.8 343.7C555.3 343.7 558.1 346.5 558.1 350C558.1 353.5 555.3 356.3 551.8 356.3C548.4 356.3 545.5 353.5 545.5 350Z" fill="#231F20"/>
<path d="M490.5 350C490.5 344.6 494.9 340.3 500.2 340.3C505.6 340.3 509.9 344.7 509.9 350C509.9 355.4 505.5 359.7 500.2 359.7C494.9 359.8 490.5 355.4 490.5 350Z" fill="#231F20"/>
<path d="M443.2 350C443.2 347 445.6 344.6 448.6 344.6C451.6 344.6 454 347 454 350C454 353 451.6 355.4 448.6 355.4C445.6 355.4 443.2 353 443.2 350Z" fill="#231F20"/>
<path d="M392.6 350C392.6 347.6 394.5 345.7 396.9 345.7C399.3 345.7 401.2 347.6 401.2 350C401.2 352.4 399.3 354.3 396.9 354.3C394.6 354.3 392.6 352.4 392.6 350Z" fill="#231F20"/>
<path d="M339.1 350C339.1 346.5 341.9 343.7 345.4 343.7C348.9 343.7 351.7 346.5 351.7 350C351.7 353.5 348.9 356.3 345.4 356.3C341.9 356.3 339.1 353.5 339.1 350Z" fill="#231F20"/>
<path d="M286.7 350C286.7 346.1 289.8 343 293.7 343C297.6 343 300.7 346.1 300.7 350C300.7 353.9 297.6 357 293.7 357C289.8 357 286.7 353.9 286.7 350Z" fill="#231F20"/>
<path d="M233.2 350C233.2 345.1 237.2 341.2 242 341.2C246.9 341.2 250.8 345.2 250.8 350C250.8 354.9 246.8 358.8 242 358.8C237.2 358.8 233.2 354.9 233.2 350Z" fill="#231F20"/>
<path d="M188.1 350C188.1 348.7 189.1 347.7 190.4 347.7C191.7 347.7 192.7 348.7 192.7 350C192.7 351.3 191.7 352.3 190.4 352.3C189.1 352.3 188.1 351.3 188.1 350Z" fill="#231F20"/>
<path d="M130.4 350C130.4 345.4 134.1 341.6 138.8 341.6C143.4 341.6 147.2 345.3 147.2 350C147.2 354.6 143.5 358.4 138.8 358.4C134.2 358.4 130.4 354.6 130.4 350Z" fill="#231F20"/>
<path d="M77.5 350C77.5 344.7 81.8 340.4 87.1 340.4C92.4 340.4 96.7 344.7 96.7 350C96.7 355.3 92.4 359.6 87.1 359.6C81.8 359.7 77.5 355.3 77.5 350Z" fill="#231F20"/>
<path d="M26.4 350C26.4 344.9 30.5 340.8 35.6 340.8C40.7 340.8 44.8 344.9 44.8 350C44.8 355.1 40.7 359.2 35.6 359.2C30.5 359.2 26.4 355.1 26.4 350Z" fill="#231F20"/>
<path d="M1426 287.3C1426 285.3 1427.6 283.7 1429.6 283.7C1431.6 283.7 1433.2 285.3 1433.2 287.3C1433.2 289.3 1431.6 290.9 1429.6 290.9C1427.7 290.9 1426 289.2 1426 287.3Z" fill="#231F20"/>
<path d="M1373.4 287.3C1373.4 284.8 1375.4 282.7 1378 282.7C1380.5 282.7 1382.6 284.8 1382.6 287.3C1382.6 289.8 1380.6 291.9 1378 291.9C1375.5 291.8 1373.4 289.8 1373.4 287.3Z" fill="#231F20"/>
<path d="M1320.9 287.3C1320.9 284.3 1323.4 281.8 1326.4 281.8C1329.4 281.8 1331.9 284.3 1331.9 287.3C1331.9 290.3 1329.4 292.8 1326.4 292.8C1323.3 292.7 1320.9 290.3 1320.9 287.3Z" fill="#231F20"/>
<path d="M1271.4 287.3C1271.4 285.4 1272.9 283.9 1274.8 283.9C1276.7 283.9 1278.2 285.4 1278.2 287.3C1278.2 289.2 1276.7 290.7 1274.8 290.7C1272.9 290.6 1271.4 289.1 1271.4 287.3Z" fill="#231F20"/>
<path d="M1215.8 287.3C1215.8 283.2 1219.1 280 1223.1 280C1227.2 280 1230.4 283.3 1230.4 287.3C1230.4 291.4 1227.1 294.6 1223.1 294.6C1219.1 294.6 1215.8 291.3 1215.8 287.3Z" fill="#231F20"/>
<path d="M1164 287.3C1164 283.2 1167.4 279.8 1171.5 279.8C1175.6 279.8 1179 283.2 1179 287.3C1179 291.4 1175.6 294.8 1171.5 294.8C1167.3 294.7 1164 291.4 1164 287.3Z" fill="#231F20"/>
<path d="M1117.9 287.3C1117.9 286.3 1118.8 285.4 1119.8 285.4C1120.9 285.4 1121.7 286.3 1121.7 287.3C1121.7 288.3 1120.9 289.2 1119.8 289.2C1118.8 289.1 1117.9 288.3 1117.9 287.3Z" fill="#231F20"/>
<path d="M1063.8 287.3C1063.8 284.9 1065.8 282.9 1068.2 282.9C1070.6 282.9 1072.6 284.9 1072.6 287.3C1072.6 289.7 1070.6 291.7 1068.2 291.7C1065.8 291.6 1063.8 289.7 1063.8 287.3Z" fill="#231F20"/>
<path d="M1010 287.3C1010 283.7 1012.9 280.7 1016.6 280.7C1020.2 280.7 1023.2 283.6 1023.2 287.3C1023.2 290.9 1020.3 293.9 1016.6 293.9C1012.9 293.8 1010 290.9 1010 287.3Z" fill="#231F20"/>
<path d="M956.5 287.3C956.5 282.7 960.3 278.9 964.9 278.9C969.5 278.9 973.3 282.7 973.3 287.3C973.3 291.9 969.6 295.7 964.9 295.7C960.3 295.6 956.5 291.9 956.5 287.3Z" fill="#231F20"/>
<path d="M907.7 287.3C907.7 284.2 910.2 281.7 913.3 281.7C916.4 281.7 918.9 284.2 918.9 287.3C918.9 290.4 916.4 292.9 913.3 292.9C910.2 292.9 907.7 290.4 907.7 287.3Z" fill="#231F20"/>
<path d="M853.2 287.3C853.2 282.6 857 278.8 861.7 278.8C866.4 278.8 870.2 282.6 870.2 287.3C870.2 292 866.4 295.8 861.7 295.8C857 295.7 853.2 291.9 853.2 287.3Z" fill="#231F20"/>
<path d="M806.3 287.3C806.3 285.2 808 283.5 810.1 283.5C812.2 283.5 813.9 285.2 813.9 287.3C813.9 289.4 812.2 291.1 810.1 291.1C808 291 806.3 289.3 806.3 287.3Z" fill="#231F20"/>
<path d="M753.6 287.3C753.6 284.6 755.8 282.5 758.4 282.5C761.1 282.5 763.2 284.7 763.2 287.3C763.2 290 761 292.1 758.4 292.1C755.7 292.1 753.6 289.9 753.6 287.3Z" fill="#231F20"/>
<path d="M701.1 287.3C701.1 284.2 703.6 281.6 706.8 281.6C709.9 281.6 712.5 284.1 712.5 287.3C712.5 290.4 710 293 706.8 293C703.6 292.9 701.1 290.4 701.1 287.3Z" fill="#231F20"/>
<path d="M651.5 287.3C651.5 285.3 653.1 283.7 655.1 283.7C657.1 283.7 658.7 285.3 658.7 287.3C658.7 289.3 657.1 290.9 655.1 290.9C653.1 290.9 651.5 289.2 651.5 287.3Z" fill="#231F20"/>
<path d="M597.5 287.3C597.5 284 600.2 281.3 603.5 281.3C606.8 281.3 609.5 284 609.5 287.3C609.5 290.6 606.8 293.3 603.5 293.3C600.2 293.3 597.5 290.6 597.5 287.3Z" fill="#231F20"/>
<path d="M542.1 287.3C542.1 281.9 546.5 277.5 551.9 277.5C557.3 277.5 561.7 281.9 561.7 287.3C561.7 292.7 557.3 297.1 551.9 297.1C546.4 297.1 542.1 292.7 542.1 287.3Z" fill="#231F20"/>
<path d="M494.3 287.3C494.3 284 496.9 281.4 500.2 281.4C503.5 281.4 506.1 284 506.1 287.3C506.1 290.6 503.5 293.2 500.2 293.2C497 293.2 494.3 290.5 494.3 287.3Z" fill="#231F20"/>
<path d="M443.6 287.3C443.6 284.5 445.8 282.3 448.6 282.3C451.4 282.3 453.6 284.5 453.6 287.3C453.6 290.1 451.4 292.3 448.6 292.3C445.8 292.3 443.6 290 443.6 287.3Z" fill="#231F20"/>
<path d="M393.8 287.3C393.8 285.6 395.2 284.2 396.9 284.2C398.6 284.2 400 285.6 400 287.3C400 289 398.6 290.4 396.9 290.4C395.2 290.4 393.8 289 393.8 287.3Z" fill="#231F20"/>
<path d="M341.6 287.3C341.6 285.2 343.3 283.6 345.3 283.6C347.4 283.6 349 285.3 349 287.3C349 289.4 347.3 291 345.3 291C343.3 291 341.6 289.3 341.6 287.3Z" fill="#231F20"/>
<path d="M288.4 287.3C288.4 284.4 290.8 282 293.7 282C296.6 282 299 284.4 299 287.3C299 290.2 296.6 292.6 293.7 292.6C290.8 292.5 288.4 290.2 288.4 287.3Z" fill="#231F20"/>
<path d="M233.9 287.3C233.9 282.8 237.6 279.1 242.1 279.1C246.6 279.1 250.3 282.8 250.3 287.3C250.3 291.8 246.6 295.5 242.1 295.5C237.6 295.4 233.9 291.8 233.9 287.3Z" fill="#231F20"/>
<path d="M181.9 287.3C181.9 282.6 185.7 278.8 190.4 278.8C195.1 278.8 198.9 282.6 198.9 287.3C198.9 292 195.1 295.8 190.4 295.8C185.7 295.7 181.9 291.9 181.9 287.3Z" fill="#231F20"/>
<path d="M129.1 287.3C129.1 282 133.4 277.6 138.8 277.6C144.1 277.6 148.5 281.9 148.5 287.3C148.5 292.6 144.2 297 138.8 297C133.4 296.9 129.1 292.6 129.1 287.3Z" fill="#231F20"/>
<path d="M82 287.3C82 284.5 84.3 282.2 87.1 282.2C89.9 282.2 92.2 284.5 92.2 287.3C92.2 290.1 89.9 292.4 87.1 292.4C84.3 292.4 82 290.1 82 287.3Z" fill="#231F20"/>
<path d="M30.8 287.3C30.8 284.7 32.9 282.6 35.5 282.6C38.1 282.6 40.2 284.7 40.2 287.3C40.2 289.9 38.1 292 35.5 292C32.9 291.9 30.8 289.8 30.8 287.3Z" fill="#231F20"/>
<path d="M1420.2 224.5C1420.2 219.3 1424.4 215.1 1429.6 215.1C1434.8 215.1 1439 219.3 1439 224.5C1439 229.7 1434.8 233.9 1429.6 233.9C1424.4 233.9 1420.2 229.7 1420.2 224.5Z" fill="#231F20"/>
<path d="M1374 224.5C1374 222.3 1375.8 220.5 1378 220.5C1380.2 220.5 1382 222.3 1382 224.5C1382 226.7 1380.2 228.5 1378 228.5C1375.8 228.5 1374 226.7 1374 224.5Z" fill="#231F20"/>
<path d="M1322.9 224.5C1322.9 222.6 1324.4 221.1 1326.3 221.1C1328.2 221.1 1329.7 222.6 1329.7 224.5C1329.7 226.4 1328.2 227.9 1326.3 227.9C1324.5 227.9 1322.9 226.4 1322.9 224.5Z" fill="#231F20"/>
<path d="M1272.6 224.5C1272.6 223.3 1273.6 222.4 1274.7 222.4C1275.9 222.4 1276.8 223.4 1276.8 224.5C1276.8 225.7 1275.8 226.6 1274.7 226.6C1273.6 226.6 1272.6 225.7 1272.6 224.5Z" fill="#231F20"/>
<path d="M1214.3 224.5C1214.3 219.7 1218.2 215.7 1223.1 215.7C1227.9 215.7 1231.9 219.6 1231.9 224.5C1231.9 229.3 1228 233.3 1223.1 233.3C1218.2 233.3 1214.3 229.3 1214.3 224.5Z" fill="#231F20"/>
<path d="M1165.6 224.5C1165.6 221.3 1168.2 218.6 1171.5 218.6C1174.7 218.6 1177.4 221.2 1177.4 224.5C1177.4 227.7 1174.8 230.4 1171.5 230.4C1168.2 230.4 1165.6 227.7 1165.6 224.5Z" fill="#231F20"/>
<path d="M1113.9 224.5C1113.9 221.2 1116.6 218.6 1119.8 218.6C1123.1 218.6 1125.7 221.3 1125.7 224.5C1125.7 227.8 1123.1 230.4 1119.8 230.4C1116.6 230.4 1113.9 227.8 1113.9 224.5Z" fill="#231F20"/>
<path d="M1060.4 224.5C1060.4 220.2 1063.9 216.6 1068.3 216.6C1072.6 216.6 1076.2 220.1 1076.2 224.5C1076.2 228.8 1072.7 232.4 1068.3 232.4C1063.9 232.3 1060.4 228.8 1060.4 224.5Z" fill="#231F20"/>
<path d="M1008.9 224.5C1008.9 220.3 1012.3 216.8 1016.6 216.8C1020.8 216.8 1024.3 220.2 1024.3 224.5C1024.3 228.7 1020.9 232.2 1016.6 232.2C1012.3 232.2 1008.9 228.7 1008.9 224.5Z" fill="#231F20"/>
<path d="M958.9 224.5C958.9 221.2 961.6 218.4 964.9 218.4C968.3 218.4 971 221.1 971 224.5C971 227.8 968.3 230.6 964.9 230.6C961.6 230.5 958.9 227.8 958.9 224.5Z" fill="#231F20"/>
<path d="M910.8 224.5C910.8 223.1 911.9 222 913.3 222C914.7 222 915.8 223.1 915.8 224.5C915.8 225.9 914.7 227 913.3 227C911.9 227 910.8 225.9 910.8 224.5Z" fill="#231F20"/>
<path d="M855.5 224.5C855.5 221.1 858.3 218.3 861.7 218.3C865.1 218.3 867.9 221.1 867.9 224.5C867.9 227.9 865.1 230.7 861.7 230.7C858.3 230.7 855.5 227.9 855.5 224.5Z" fill="#231F20"/>
<path d="M808 224.5C808 223.4 808.9 222.4 810.1 222.4C811.2 222.4 812.2 223.3 812.2 224.5C812.2 225.6 811.3 226.6 810.1 226.6C808.9 226.5 808 225.6 808 224.5Z" fill="#231F20"/>
<path d="M755.9 224.5C755.9 223.1 757 222 758.4 222C759.8 222 760.9 223.1 760.9 224.5C760.9 225.9 759.8 227 758.4 227C757 227 755.9 225.9 755.9 224.5Z" fill="#231F20"/>
<path d="M700.2 224.5C700.2 220.9 703.1 218 706.7 218C710.3 218 713.2 220.9 713.2 224.5C713.2 228.1 710.3 231 706.7 231C703.2 231 700.2 228.1 700.2 224.5Z" fill="#231F20"/>
<path d="M650.8 224.5C650.8 222.1 652.7 220.2 655.1 220.2C657.5 220.2 659.4 222.1 659.4 224.5C659.4 226.9 657.5 228.8 655.1 228.8C652.8 228.8 650.8 226.9 650.8 224.5Z" fill="#231F20"/>
<path d="M602.3 224.5C602.3 223.8 602.8 223.3 603.5 223.3C604.2 223.3 604.7 223.8 604.7 224.5C604.7 225.2 604.2 225.7 603.5 225.7C602.8 225.7 602.3 225.2 602.3 224.5Z" fill="#231F20"/>
<path d="M546.5 224.5C546.5 221.5 548.9 219.2 551.8 219.2C554.8 219.2 557.1 221.6 557.1 224.5C557.1 227.5 554.7 229.8 551.8 229.8C548.9 229.8 546.5 227.4 546.5 224.5Z" fill="#231F20"/>
<path d="M493.9 224.5C493.9 221 496.8 218.1 500.3 218.1C503.8 218.1 506.7 221 506.7 224.5C506.7 228 503.8 230.9 500.3 230.9C496.7 230.9 493.9 228 493.9 224.5Z" fill="#231F20"/>
<path d="M442.9 224.5C442.9 221.4 445.5 218.8 448.6 218.8C451.7 218.8 454.3 221.4 454.3 224.5C454.3 227.6 451.7 230.2 448.6 230.2C445.4 230.2 442.9 227.6 442.9 224.5Z" fill="#231F20"/>
<path d="M390 224.5C390 220.7 393.1 217.6 396.9 217.6C400.7 217.6 403.8 220.7 403.8 224.5C403.8 228.3 400.7 231.4 396.9 231.4C393.1 231.4 390 228.3 390 224.5Z" fill="#231F20"/>
<path d="M342.5 224.5C342.5 222.9 343.8 221.7 345.3 221.7C346.9 221.7 348.1 223 348.1 224.5C348.1 226.1 346.8 227.3 345.3 227.3C343.8 227.3 342.5 226.1 342.5 224.5Z" fill="#231F20"/>
<path d="M292.1 224.5C292.1 223.6 292.8 222.9 293.7 222.9C294.6 222.9 295.3 223.6 295.3 224.5C295.3 225.4 294.6 226.1 293.7 226.1C292.8 226.1 292.1 225.4 292.1 224.5Z" fill="#231F20"/>
<path d="M234.4 224.5C234.4 220.3 237.8 216.8 242.1 216.8C246.3 216.8 249.8 220.2 249.8 224.5C249.8 228.7 246.4 232.2 242.1 232.2C237.8 232.1 234.4 228.7 234.4 224.5Z" fill="#231F20"/>
<path d="M187.5 224.5C187.5 222.9 188.8 221.6 190.4 221.6C192 221.6 193.3 222.9 193.3 224.5C193.3 226.1 192 227.4 190.4 227.4C188.8 227.4 187.5 226.1 187.5 224.5Z" fill="#231F20"/>
<path d="M136.3 224.5C136.3 223.1 137.4 222 138.8 222C140.2 222 141.3 223.1 141.3 224.5C141.3 225.9 140.2 227 138.8 227C137.4 227 136.3 225.9 136.3 224.5Z" fill="#231F20"/>
<path d="M80.3 224.5C80.3 220.7 83.4 217.6 87.2 217.6C91 217.6 94.1 220.7 94.1 224.5C94.1 228.3 91 231.4 87.2 231.4C83.4 231.3 80.3 228.3 80.3 224.5Z" fill="#231F20"/>
<path d="M28.2 224.5C28.2 220.5 31.5 217.2 35.5 217.2C39.5 217.2 42.8 220.5 42.8 224.5C42.8 228.5 39.5 231.8 35.5 231.8C31.5 231.8 28.2 228.5 28.2 224.5Z" fill="#231F20"/>
<path d="M1425.5 161.7C1425.5 159.4 1427.4 157.6 1429.6 157.6C1431.9 157.6 1433.7 159.5 1433.7 161.7C1433.7 164 1431.8 165.8 1429.6 165.8C1427.4 165.9 1425.5 164 1425.5 161.7Z" fill="#231F20"/>
<path d="M1369.9 161.7C1369.9 157.2 1373.5 153.6 1378 153.6C1382.5 153.6 1386.1 157.2 1386.1 161.7C1386.1 166.2 1382.5 169.8 1378 169.8C1373.5 169.9 1369.9 166.2 1369.9 161.7Z" fill="#231F20"/>
<path d="M1322.9 161.7C1322.9 159.8 1324.5 158.2 1326.4 158.2C1328.3 158.2 1329.9 159.8 1329.9 161.7C1329.9 163.6 1328.3 165.2 1326.4 165.2C1324.5 165.2 1322.9 163.6 1322.9 161.7Z" fill="#231F20"/>
<path d="M1272.3 161.7C1272.3 160.4 1273.4 159.3 1274.7 159.3C1276 159.3 1277.1 160.4 1277.1 161.7C1277.1 163 1276 164.1 1274.7 164.1C1273.4 164.1 1272.3 163 1272.3 161.7Z" fill="#231F20"/>
<path d="M1219.8 161.7C1219.8 159.9 1221.3 158.4 1223.1 158.4C1224.9 158.4 1226.4 159.9 1226.4 161.7C1226.4 163.5 1224.9 165 1223.1 165C1221.3 165.1 1219.8 163.6 1219.8 161.7Z" fill="#231F20"/>
<path d="M1166 161.7C1166 158.7 1168.5 156.2 1171.5 156.2C1174.5 156.2 1177 158.7 1177 161.7C1177 164.7 1174.5 167.2 1171.5 167.2C1168.4 167.2 1166 164.8 1166 161.7Z" fill="#231F20"/>
<path d="M1113 161.7C1113 157.9 1116 154.9 1119.8 154.9C1123.6 154.9 1126.6 157.9 1126.6 161.7C1126.6 165.5 1123.6 168.5 1119.8 168.5C1116.1 168.5 1113 165.5 1113 161.7Z" fill="#231F20"/>
<path d="M1064.7 161.7C1064.7 159.8 1066.3 158.2 1068.2 158.2C1070.1 158.2 1071.7 159.8 1071.7 161.7C1071.7 163.6 1070.1 165.2 1068.2 165.2C1066.3 165.2 1064.7 163.6 1064.7 161.7Z" fill="#231F20"/>
<path d="M1010.1 161.7C1010.1 158.1 1013 155.2 1016.6 155.2C1020.2 155.2 1023.1 158.1 1023.1 161.7C1023.1 165.3 1020.2 168.2 1016.6 168.2C1013 168.2 1010.1 165.3 1010.1 161.7Z" fill="#231F20"/>
<path d="M959.5 161.7C959.5 158.7 961.9 156.2 964.9 156.2C967.9 156.2 970.4 158.6 970.4 161.7C970.4 164.7 968 167.2 964.9 167.2C961.9 167.2 959.5 164.7 959.5 161.7Z" fill="#231F20"/>
<path d="M905.4 161.7C905.4 157.4 908.9 153.8 913.3 153.8C917.6 153.8 921.2 157.3 921.2 161.7C921.2 166 917.7 169.6 913.3 169.6C909 169.6 905.4 166.1 905.4 161.7Z" fill="#231F20"/>
<path d="M857.2 161.7C857.2 159.2 859.2 157.2 861.6 157.2C864.1 157.2 866.1 159.2 866.1 161.7C866.1 164.2 864.1 166.2 861.6 166.2C859.2 166.2 857.2 164.2 857.2 161.7Z" fill="#231F20"/>
<path d="M805.4 161.7C805.4 159.2 807.5 157.1 810 157.1C812.5 157.1 814.6 159.2 814.6 161.7C814.6 164.2 812.5 166.3 810 166.3C807.5 166.3 805.4 164.3 805.4 161.7Z" fill="#231F20"/>
<path d="M757 161.7C757 160.9 757.6 160.3 758.4 160.3C759.2 160.3 759.8 160.9 759.8 161.7C759.8 162.5 759.2 163.1 758.4 163.1C757.6 163.1 757 162.5 757 161.7Z" fill="#231F20"/>
<path d="M699.5 161.7C699.5 157.7 702.7 154.4 706.8 154.4C710.8 154.4 714.1 157.7 714.1 161.7C714.1 165.7 710.9 169 706.8 169C702.8 169 699.5 165.7 699.5 161.7Z" fill="#231F20"/>
<path d="M647 161.7C647 157.2 650.6 153.6 655.1 153.6C659.6 153.6 663.2 157.2 663.2 161.7C663.2 166.2 659.6 169.8 655.1 169.8C650.7 169.8 647 166.2 647 161.7Z" fill="#231F20"/>
<path d="M602.1 161.7C602.1 160.9 602.7 160.3 603.5 160.3C604.3 160.3 604.9 160.9 604.9 161.7C604.9 162.5 604.3 163.1 603.5 163.1C602.7 163.1 602.1 162.5 602.1 161.7Z" fill="#231F20"/>
<path d="M546.5 161.7C546.5 158.8 548.9 156.4 551.8 156.4C554.7 156.4 557.1 158.8 557.1 161.7C557.1 164.6 554.7 167 551.8 167C548.9 167.1 546.5 164.7 546.5 161.7Z" fill="#231F20"/>
<path d="M493.7 161.7C493.7 158.1 496.6 155.2 500.2 155.2C503.8 155.2 506.7 158.1 506.7 161.7C506.7 165.3 503.8 168.2 500.2 168.2C496.7 168.2 493.7 165.3 493.7 161.7Z" fill="#231F20"/>
<path d="M442.8 161.7C442.8 158.5 445.4 155.9 448.6 155.9C451.8 155.9 454.4 158.5 454.4 161.7C454.4 164.9 451.8 167.5 448.6 167.5C445.4 167.6 442.8 164.9 442.8 161.7Z" fill="#231F20"/>
<path d="M387.4 161.7C387.4 156.4 391.7 152.1 397 152.1C402.3 152.1 406.6 156.4 406.6 161.7C406.6 167 402.3 171.3 397 171.3C391.7 171.3 387.4 167 387.4 161.7Z" fill="#231F20"/>
<path d="M337 161.7C337 157.1 340.7 153.4 345.3 153.4C349.9 153.4 353.6 157.1 353.6 161.7C353.6 166.3 349.9 170 345.3 170C340.7 170 337 166.3 337 161.7Z" fill="#231F20"/>
<path d="M291.6 161.7C291.6 160.5 292.5 159.6 293.7 159.6C294.9 159.6 295.8 160.5 295.8 161.7C295.8 162.9 294.9 163.8 293.7 163.8C292.5 163.8 291.6 162.9 291.6 161.7Z" fill="#231F20"/>
<path d="M233.2 161.7C233.2 156.8 237.2 152.8 242.1 152.8C247 152.8 251 156.8 251 161.7C251 166.6 247 170.6 242.1 170.6C237.1 170.6 233.2 166.6 233.2 161.7Z" fill="#231F20"/>
<path d="M183.5 161.7C183.5 157.9 186.6 154.8 190.4 154.8C194.2 154.8 197.3 157.9 197.3 161.7C197.3 165.5 194.2 168.6 190.4 168.6C186.6 168.6 183.5 165.5 183.5 161.7Z" fill="#231F20"/>
<path d="M136.1 161.7C136.1 160.2 137.3 159 138.8 159C140.3 159 141.5 160.2 141.5 161.7C141.5 163.2 140.3 164.4 138.8 164.4C137.3 164.4 136.1 163.2 136.1 161.7Z" fill="#231F20"/>
<path d="M84.5 161.7C84.5 160.3 85.7 159.1 87.1 159.1C88.5 159.1 89.7 160.3 89.7 161.7C89.7 163.1 88.5 164.3 87.1 164.3C85.7 164.3 84.5 163.2 84.5 161.7Z" fill="#231F20"/>
<path d="M32.8 161.7C32.8 160.2 34 159 35.5 159C37 159 38.2 160.2 38.2 161.7C38.2 163.2 37 164.4 35.5 164.4C34 164.4 32.8 163.2 32.8 161.7Z" fill="#231F20"/>
<path d="M1422.7 99C1422.7 95.1 1425.8 92 1429.7 92C1433.6 92 1436.7 95.1 1436.7 99C1436.7 102.9 1433.6 106 1429.7 106C1425.8 105.9 1422.7 102.8 1422.7 99Z" fill="#231F20"/>
<path d="M1374.3 99C1374.3 96.9 1376 95.2 1378.1 95.2C1380.2 95.2 1381.9 96.9 1381.9 99C1381.9 101.1 1380.2 102.8 1378.1 102.8C1375.9 102.7 1374.3 101 1374.3 99Z" fill="#231F20"/>
<path d="M1317.5 99.0001C1317.5 94.1001 1321.5 90.1001 1326.4 90.1001C1331.3 90.1001 1335.3 94.1001 1335.3 99.0001C1335.3 103.9 1331.3 107.9 1326.4 107.9C1321.5 107.9 1317.5 103.9 1317.5 99.0001Z" fill="#231F20"/>
<path d="M1271.2 99C1271.2 97.1 1272.8 95.5 1274.7 95.5C1276.6 95.5 1278.2 97.1 1278.2 99C1278.2 100.9 1276.6 102.5 1274.7 102.5C1272.8 102.5 1271.2 100.9 1271.2 99Z" fill="#231F20"/>
<path d="M1215.5 98.9999C1215.5 94.7999 1218.9 91.3999 1223.1 91.3999C1227.3 91.3999 1230.7 94.7999 1230.7 98.9999C1230.7 103.2 1227.3 106.6 1223.1 106.6C1218.9 106.5 1215.5 103.1 1215.5 98.9999Z" fill="#231F20"/>
<path d="M1169 99.0001C1169 97.7001 1170.1 96.6001 1171.4 96.6001C1172.7 96.6001 1173.8 97.7001 1173.8 99.0001C1173.8 100.3 1172.7 101.4 1171.4 101.4C1170.1 101.4 1169 100.3 1169 99.0001Z" fill="#231F20"/>
<path d="M1116.9 99C1116.9 97.4 1118.2 96 1119.9 96C1121.5 96 1122.9 97.3 1122.9 99C1122.9 100.6 1121.6 102 1119.9 102C1118.2 101.9 1116.9 100.6 1116.9 99Z" fill="#231F20"/>
<path d="M1062.8 99.0001C1062.8 96.0001 1065.2 93.6001 1068.2 93.6001C1071.2 93.6001 1073.6 96.0001 1073.6 99.0001C1073.6 102 1071.2 104.4 1068.2 104.4C1065.2 104.4 1062.8 101.9 1062.8 99.0001Z" fill="#231F20"/>
<path d="M1012.2 99.0001C1012.2 96.6001 1014.2 94.6001 1016.6 94.6001C1019 94.6001 1021 96.6001 1021 99.0001C1021 101.4 1019 103.4 1016.6 103.4C1014.2 103.3 1012.2 101.4 1012.2 99.0001Z" fill="#231F20"/>
<path d="M958.7 99C958.7 95.5 961.5 92.7 965 92.7C968.5 92.7 971.3 95.5 971.3 99C971.3 102.5 968.5 105.3 965 105.3C961.5 105.3 958.7 102.4 958.7 99Z" fill="#231F20"/>
<path d="M908.4 99.0001C908.4 96.3001 910.6 94.1001 913.3 94.1001C916 94.1001 918.2 96.3001 918.2 99.0001C918.2 101.7 916 103.9 913.3 103.9C910.6 103.9 908.4 101.7 908.4 99.0001Z" fill="#231F20"/>
<path d="M857.7 99.0001C857.7 96.8001 859.5 95.1001 861.6 95.1001C863.8 95.1001 865.5 96.9001 865.5 99.0001C865.5 101.2 863.8 102.9 861.6 102.9C859.5 102.9 857.7 101.1 857.7 99.0001Z" fill="#231F20"/>
<path d="M801.1 99.0001C801.1 94.1001 805.1 90.1001 810 90.1001C814.9 90.1001 818.9 94.1001 818.9 99.0001C818.9 103.9 814.9 107.9 810 107.9C805.1 107.9 801.1 103.9 801.1 99.0001Z" fill="#231F20"/>
<path d="M755.8 98.9999C755.8 97.5999 757 96.3999 758.4 96.3999C759.8 96.3999 761 97.5999 761 98.9999C761 100.4 759.8 101.6 758.4 101.6C757 101.6 755.8 100.4 755.8 98.9999Z" fill="#231F20"/>
<path d="M704.9 99C704.9 98 705.7 97.2 706.7 97.2C707.7 97.2 708.5 98 708.5 99C708.5 100 707.7 100.8 706.7 100.8C705.8 100.8 704.9 100 704.9 99Z" fill="#231F20"/>
<path d="M651 98.9999C651 96.6999 652.8 94.8999 655.1 94.8999C657.4 94.8999 659.2 96.6999 659.2 98.9999C659.2 101.3 657.4 103.1 655.1 103.1C652.9 103.1 651 101.2 651 98.9999Z" fill="#231F20"/>
<path d="M594.3 99C594.3 93.9 598.4 89.8 603.5 89.8C608.6 89.8 612.7 93.9 612.7 99C612.7 104.1 608.6 108.2 603.5 108.2C598.4 108.2 594.3 104 594.3 99Z" fill="#231F20"/>
<path d="M546.6 99C546.6 96.1 548.9 93.8 551.8 93.8C554.7 93.8 557 96.1 557 99C557 101.9 554.7 104.2 551.8 104.2C549 104.2 546.6 101.8 546.6 99Z" fill="#231F20"/>
<path d="M493.3 99.0001C493.3 95.2001 496.4 92.1001 500.2 92.1001C504 92.1001 507.1 95.2001 507.1 99.0001C507.1 102.8 504 105.9 500.2 105.9C496.4 105.9 493.3 102.8 493.3 99.0001Z" fill="#231F20"/>
<path d="M446.7 99.0001C446.7 98.0001 447.5 97.1001 448.6 97.1001C449.6 97.1001 450.5 97.9001 450.5 99.0001C450.5 100 449.7 100.9 448.6 100.9C447.5 100.8 446.7 100 446.7 99.0001Z" fill="#231F20"/>
<path d="M391.6 99.0001C391.6 96.0001 394 93.6001 397 93.6001C400 93.6001 402.4 96.0001 402.4 99.0001C402.4 102 400 104.4 397 104.4C394 104.3 391.6 101.9 391.6 99.0001Z" fill="#231F20"/>
<path d="M341.4 99C341.4 96.8 343.2 95 345.4 95C347.6 95 349.4 96.8 349.4 99C349.4 101.2 347.6 103 345.4 103C343.1 102.9 341.4 101.1 341.4 99Z" fill="#231F20"/>
<path d="M288.8 99.0001C288.8 96.3001 291 94.1001 293.7 94.1001C296.4 94.1001 298.6 96.3001 298.6 99.0001C298.6 101.7 296.4 103.9 293.7 103.9C291 103.9 288.8 101.7 288.8 99.0001Z" fill="#231F20"/>
<path d="M240.1 99C240.1 97.9 241 97 242.1 97C243.2 97 244.1 97.9 244.1 99C244.1 100.1 243.2 101 242.1 101C241 101 240.1 100.1 240.1 99Z" fill="#231F20"/>
<path d="M183.8 98.9999C183.8 95.2999 186.8 92.3999 190.4 92.3999C194.1 92.3999 197 95.3999 197 98.9999C197 102.7 194 105.6 190.4 105.6C186.8 105.6 183.8 102.6 183.8 98.9999Z" fill="#231F20"/>
<path d="M132.8 99C132.8 95.7 135.5 93 138.8 93C142.1 93 144.8 95.7 144.8 99C144.8 102.3 142.1 105 138.8 105C135.5 104.9 132.8 102.2 132.8 99Z" fill="#231F20"/>
<path d="M78.9 99C78.9 94.5 82.6 90.8 87.1 90.8C91.6 90.8 95.3 94.5 95.3 99C95.3 103.5 91.6 107.2 87.1 107.2C82.6 107.2 78.9 103.5 78.9 99Z" fill="#231F20"/>
<path d="M33.9 99C33.9 98.1 34.6 97.3 35.6 97.3C36.5 97.3 37.3 98 37.3 99C37.3 99.9 36.6 100.7 35.6 100.7C34.6 100.6 33.9 99.9 33.9 99Z" fill="#231F20"/>
<path d="M1428.1 36.2001C1428.1 35.3001 1428.8 34.6001 1429.7 34.6001C1430.6 34.6001 1431.3 35.3001 1431.3 36.2001C1431.3 37.1001 1430.6 37.8001 1429.7 37.8001C1428.8 37.8001 1428.1 37.1001 1428.1 36.2001Z" fill="#231F20"/>
<path d="M1372.7 36.1999C1372.7 33.2999 1375.1 30.8999 1378 30.8999C1380.9 30.8999 1383.3 33.2999 1383.3 36.1999C1383.3 39.0999 1380.9 41.4999 1378 41.4999C1375.1 41.4999 1372.7 39.0999 1372.7 36.1999Z" fill="#231F20"/>
<path d="M1324.9 36.2C1324.9 35.4 1325.6 34.7 1326.4 34.7C1327.2 34.7 1327.9 35.4 1327.9 36.2C1327.9 37 1327.2 37.7 1326.4 37.7C1325.6 37.7 1324.9 37 1324.9 36.2Z" fill="#231F20"/>
<path d="M1268.2 36.2C1268.2 32.6 1271.1 29.7 1274.7 29.7C1278.3 29.7 1281.2 32.6 1281.2 36.2C1281.2 39.8 1278.3 42.7 1274.7 42.7C1271.1 42.7 1268.2 39.8 1268.2 36.2Z" fill="#231F20"/>
<path d="M1213.5 36.2001C1213.5 30.9001 1217.8 26.6001 1223.1 26.6001C1228.4 26.6001 1232.8 30.9001 1232.8 36.2001C1232.8 41.5001 1228.5 45.8001 1223.1 45.8001C1217.8 45.8001 1213.5 41.5001 1213.5 36.2001Z" fill="#231F20"/>
<path d="M1166.5 36.2C1166.5 33.4 1168.7 31.2 1171.5 31.2C1174.3 31.2 1176.5 33.4 1176.5 36.2C1176.5 39 1174.3 41.2 1171.5 41.2C1168.7 41.2 1166.5 39 1166.5 36.2Z" fill="#231F20"/>
<path d="M1114.3 36.2C1114.3 33.2 1116.8 30.7 1119.8 30.7C1122.9 30.7 1125.3 33.2 1125.3 36.2C1125.3 39.2 1122.8 41.7 1119.8 41.7C1116.8 41.7 1114.3 39.2 1114.3 36.2Z" fill="#231F20"/>
<path d="M1061.1 36.2001C1061.1 32.3001 1064.3 29.1001 1068.2 29.1001C1072.1 29.1001 1075.3 32.3001 1075.3 36.2001C1075.3 40.1001 1072.1 43.3001 1068.2 43.3001C1064.3 43.3001 1061.1 40.1001 1061.1 36.2001Z" fill="#231F20"/>
<path d="M1013.4 36.2001C1013.4 34.5001 1014.8 33.1001 1016.5 33.1001C1018.2 33.1001 1019.6 34.5001 1019.6 36.2001C1019.6 37.9001 1018.2 39.3001 1016.5 39.3001C1014.8 39.3001 1013.4 37.9001 1013.4 36.2001Z" fill="#231F20"/>
<path d="M959.6 36.1999C959.6 33.2999 962 30.8999 964.9 30.8999C967.8 30.8999 970.2 33.2999 970.2 36.1999C970.2 39.0999 967.8 41.4999 964.9 41.4999C962 41.4999 959.6 39.0999 959.6 36.1999Z" fill="#231F20"/>
<path d="M908.5 36.1999C908.5 33.4999 910.7 31.3999 913.3 31.3999C916 31.3999 918.1 33.5999 918.1 36.1999C918.1 38.8999 915.9 40.9999 913.3 40.9999C910.6 40.9999 908.5 38.8999 908.5 36.1999Z" fill="#231F20"/>
<path d="M860.1 36.2001C860.1 35.3001 860.8 34.6001 861.7 34.6001C862.6 34.6001 863.3 35.3001 863.3 36.2001C863.3 37.1001 862.6 37.8001 861.7 37.8001C860.8 37.8001 860.1 37.1001 860.1 36.2001Z" fill="#231F20"/>
<path d="M802 36.2C802 31.8 805.6 28.2 810 28.2C814.4 28.2 818 31.8 818 36.2C818 40.6 814.4 44.2 810 44.2C805.6 44.2 802 40.6 802 36.2Z" fill="#231F20"/>
<path d="M753.7 36.2C753.7 33.6 755.8 31.5 758.4 31.5C761 31.5 763.1 33.6 763.1 36.2C763.1 38.8 761 40.9 758.4 40.9C755.8 40.9 753.7 38.8 753.7 36.2Z" fill="#231F20"/>
<path d="M700.5 36.1999C700.5 32.6999 703.3 29.8999 706.8 29.8999C710.3 29.8999 713.1 32.6999 713.1 36.1999C713.1 39.6999 710.3 42.4999 706.8 42.4999C703.3 42.4999 700.5 39.6999 700.5 36.1999Z" fill="#231F20"/>
<path d="M648 36.2001C648 32.3001 651.2 29.1001 655.1 29.1001C659 29.1001 662.2 32.3001 662.2 36.2001C662.2 40.1001 659 43.3001 655.1 43.3001C651.2 43.3001 648 40.1001 648 36.2001Z" fill="#231F20"/>
<path d="M598.7 36.1999C598.7 33.4999 600.9 31.3999 603.5 31.3999C606.2 31.3999 608.3 33.5999 608.3 36.1999C608.3 38.8999 606.1 40.9999 603.5 40.9999C600.8 40.9999 598.7 38.8999 598.7 36.1999Z" fill="#231F20"/>
<path d="M543.1 36.1999C543.1 31.3999 547 27.3999 551.9 27.3999C556.8 27.3999 560.7 31.2999 560.7 36.1999C560.7 40.9999 556.8 44.9999 551.9 44.9999C547 44.9999 543.1 40.9999 543.1 36.1999Z" fill="#231F20"/>
<path d="M497.8 36.2C497.8 34.8 498.9 33.7 500.3 33.7C501.7 33.7 502.8 34.8 502.8 36.2C502.8 37.6 501.7 38.7 500.3 38.7C498.9 38.7 497.8 37.6 497.8 36.2Z" fill="#231F20"/>
<path d="M444.2 36.2001C444.2 33.8001 446.2 31.8 448.6 31.8C451 31.8 453 33.8001 453 36.2001C453 38.6001 451 40.6001 448.6 40.6001C446.1 40.6001 444.2 38.6001 444.2 36.2001Z" fill="#231F20"/>
<path d="M394.5 36.2C394.5 34.8 395.6 33.7 397 33.7C398.4 33.7 399.5 34.8 399.5 36.2C399.5 37.6 398.4 38.7 397 38.7C395.6 38.7 394.5 37.6 394.5 36.2Z" fill="#231F20"/>
<path d="M341.7 36.2001C341.7 34.2001 343.3 32.6001 345.3 32.6001C347.3 32.6001 348.9 34.2001 348.9 36.2001C348.9 38.2001 347.3 39.8001 345.3 39.8001C343.3 39.8001 341.7 38.2001 341.7 36.2001Z" fill="#231F20"/>
<path d="M284.9 36.1999C284.9 31.2999 288.8 27.3999 293.7 27.3999C298.6 27.3999 302.5 31.3999 302.5 36.1999C302.5 41.0999 298.5 44.9999 293.7 44.9999C288.8 44.9999 284.9 41.0999 284.9 36.1999Z" fill="#231F20"/>
<path d="M235.1 36.2C235.1 32.4 238.2 29.2 242.1 29.2C245.9 29.2 249.1 32.3 249.1 36.2C249.1 40 246 43.2 242.1 43.2C238.2 43.2 235.1 40 235.1 36.2Z" fill="#231F20"/>
<path d="M183 36.2C183 32.1 186.3 28.7 190.5 28.7C194.6 28.7 198 32 198 36.2C198 40.3 194.7 43.7 190.5 43.7C186.3 43.7 183 40.3 183 36.2Z" fill="#231F20"/>
<path d="M132.3 36.2C132.3 32.6 135.2 29.7 138.8 29.7C142.4 29.7 145.3 32.6 145.3 36.2C145.3 39.8 142.4 42.7 138.8 42.7C135.2 42.7 132.3 39.8 132.3 36.2Z" fill="#231F20"/>
<path d="M80.2 36.2C80.2 32.3 83.3 29.2 87.2 29.2C91.1 29.2 94.2 32.3 94.2 36.2C94.2 40.1 91.1 43.2 87.2 43.2C83.3 43.2 80.2 40.1 80.2 36.2Z" fill="#231F20"/>
<path d="M29.6 36.2001C29.6 32.9001 32.3 30.3 35.5 30.3C38.8 30.3 41.4 33.0001 41.4 36.2001C41.4 39.5001 38.7 42.1001 35.5 42.1001C32.2 42.1001 29.6 39.5001 29.6 36.2001Z" fill="#231F20"/>
</g>
</g>
</svg>
